<svg xmlns="http://www.w3.org/2000/svg" xmlns:xlink="http://www.w3.org/1999/xlink" width="1361.5" height="340.75" viewBox="0 0 1361.5 340.75">
  <defs>
    <clipPath id="clip-path">
      <rect id="Rectangle_391" data-name="Rectangle 391" width="221.25" height="60" fill="#fff"/>
    </clipPath>
    <clipPath id="clip-path-2">
      <path id="Path_7996" data-name="Path 7996" d="M37.806,83.173h0Zm7.561,0H173.906V45.367H45.367ZM0,83.173H37.806V0H0ZM45.367,37.806H173.906V0H45.367Z" fill="#fff"/>
    </clipPath>
    <clipPath id="clip-path-4">
      <rect id="Rectangle_394" data-name="Rectangle 394" width="201.04" height="99.233" fill="#fff"/>
    </clipPath>
  </defs>
  <g id="Group_8110" data-name="Group 8110" transform="translate(-280 -11471)">
    <rect id="Rectangle_397" data-name="Rectangle 397" width="340.75" height="340.75" transform="translate(280 11471)" fill="#4b7729"/>
    <rect id="Rectangle_399" data-name="Rectangle 399" width="340.75" height="340.75" transform="translate(619.25 11471)" fill="#bdd684"/>
    <rect id="Rectangle_400" data-name="Rectangle 400" width="340.75" height="340.75" transform="translate(960 11471)" fill="#016ec7"/>
    <rect id="Rectangle_401" data-name="Rectangle 401" width="340.75" height="340.75" transform="translate(1300.75 11471)" fill="#179cd8"/>
    <g id="Group_8044" data-name="Group 8044" transform="translate(1360.75 11611.375)">
      <g id="Group_8043" data-name="Group 8043" clip-path="url(#clip-path)">
        <path id="Path_7991" data-name="Path 7991" d="M0,0C9.031,0,18.814,0,22.577,6.92L33.112,33.064,44.4,6.92C48.163,0,57.946,0,66.977,0L46.658,52.287C44.4,56.9,40.638,59.977,34.3,60c-.434,0-.433-.017-.974-.017-6.985-.006-10.747-3.082-13.005-7.7Z" fill="#fff"/>
        <path id="Path_7992" data-name="Path 7992" d="M70.74,59.977c19.566,0,19.566-13.841,19.566-13.841V0C70.74,0,70.74,13.841,70.74,13.841V59.977" fill="#fff"/>
        <path id="Path_7993" data-name="Path 7993" d="M96.326,0c9.031,0,18.815,0,22.578,6.92l10.535,26.144L140.727,6.92C144.49,0,154.272,0,163.3,0L142.984,52.287c-2.257,4.614-6.019,7.69-12.36,7.713-.434,0-.433-.017-.974-.017-6.985-.006-10.746-3.082-13-7.7Z" fill="#fff"/>
        <path id="Path_7994" data-name="Path 7994" d="M154.273,60c9.031,0,18.814,0,22.577-6.92l10.535-26.144L198.674,53.08C202.436,60,212.219,60,221.25,60L200.931,7.713C198.674,3.1,194.911.023,188.571,0c-.434,0-.433.017-.973.017-6.986.006-10.748,3.082-13.006,7.7Z" fill="#fff"/>
      </g>
    </g>
    <g id="Group_8046" data-name="Group 8046" transform="translate(-91.578 11599.789)">
      <g id="Group_8045" data-name="Group 8045" transform="translate(454)" clip-path="url(#clip-path-2)">
        <path id="Path_7995" data-name="Path 7995" d="M83.173,41.586A41.586,41.586,0,1,0,41.586,83.173H83.173Zm7.561,0A41.586,41.586,0,1,0,132.32,0,41.586,41.586,0,0,0,90.734,41.586" fill="#fff"/>
      </g>
    </g>
    <g id="Group_8049" data-name="Group 8049" transform="translate(248.672 11599.789)">
      <g id="Group_8045-2" data-name="Group 8045" transform="translate(454)" clip-path="url(#clip-path-2)">
        <path id="Path_7995-2" data-name="Path 7995" d="M83.173,41.586A41.586,41.586,0,1,0,41.586,83.173H83.173Zm7.561,0A41.586,41.586,0,1,0,132.32,0,41.586,41.586,0,0,0,90.734,41.586" fill="#fff"/>
      </g>
    </g>
    <g id="Group_8052" data-name="Group 8052" transform="translate(1041.979 11603.814)">
      <g id="Group_8047" data-name="Group 8047" transform="translate(0 0)" clip-path="url(#clip-path-4)">
        <path id="Path_7997" data-name="Path 7997" d="M69.558,71.28A27.875,27.875,0,0,1,42.041,99.233H36.533v-71A28.265,28.265,0,0,1,64.051,0h5.508Z" transform="translate(4.264 0)" fill="#fff"/>
        <path id="Path_7998" data-name="Path 7998" d="M0,40.931A27.93,27.93,0,0,0,27.518,68.883h5.508V28.231A28.265,28.265,0,0,0,5.508,0H0V41.923" transform="translate(0 0)" fill="#fff"/>
        <path id="Path_7999" data-name="Path 7999" d="M86.369,7.176,83.025,1.389H78.788l5.642,10.035v7.37h3.812V11.413L94.029,1.378H89.792Z" transform="translate(9.195 0.161)" fill="#fff"/>
        <path id="Path_8000" data-name="Path 8000" d="M110.966,14.552a8.406,8.406,0,0,0,1.261-4.527,8.663,8.663,0,0,0-1.272-4.46,9.32,9.32,0,0,0-3.345-3.244,8.92,8.92,0,0,0-7.348-.7,9.508,9.508,0,0,0-3.244,1.973A8.805,8.805,0,0,0,94.164,9.9a9.235,9.235,0,0,0,1.114,4.371,9.642,9.642,0,0,0,3.346,3.345,8.183,8.183,0,0,0,4.382,1.116,8.919,8.919,0,0,0,4.649-1.271,8.126,8.126,0,0,0,3.256-2.966m-2.487-4.471a4.92,4.92,0,0,1-.7,2.542,4.462,4.462,0,0,1-1.984,1.986,4.819,4.819,0,0,1-4.371.423,9.442,9.442,0,0,1-1.984-1.114A5.107,5.107,0,0,1,97.7,9.9a5.061,5.061,0,0,1,1.271-3.345,4.818,4.818,0,0,1,3.948-1.84A7.2,7.2,0,0,1,104.611,5a8.961,8.961,0,0,1,1.974,1.114,5.213,5.213,0,0,1,1.839,3.959" transform="translate(10.989 0.133)" fill="#fff"/>
        <path id="Path_8001" data-name="Path 8001" d="M135.653,12.537l5.218,6.255h5.084l-8.329-9.176,8.184-8.184h-5.1l-5.062,5.319V1.388h-3.858v17.4h3.814Z" transform="translate(15.381 0.162)" fill="#fff"/>
        <path id="Path_8002" data-name="Path 8002" d="M118.8,10.419l5.653,7.905.279.29h4.46l-5.084-6.78a5.139,5.139,0,0,0,3.1-4.939,5.63,5.63,0,0,0-5.575-5.508h-6.355v17.4h3.668V10.419Zm0-5.642h2.653a2.052,2.052,0,0,1,2.118,1.983V6.9a2.162,2.162,0,0,1-2.118,2.118h-2.676Z" transform="translate(13.454 0.162)" fill="#fff"/>
        <path id="Path_8003" data-name="Path 8003" d="M106.958,27.431V23.763H97.079v17.36h9.878V37.589h-6.21v-3.8h6.109V30.252h-6.065V27.431Z" transform="translate(11.33 2.773)" fill="#fff"/>
        <path id="Path_8004" data-name="Path 8004" d="M119.62,35.04h4.371a2.8,2.8,0,0,1-1.116,1.7,4.984,4.984,0,0,1-6.689-.29,4.887,4.887,0,0,1-1.7-3.814,5.368,5.368,0,0,1,.714-2.676,5.714,5.714,0,0,1,2.118-1.973,4.723,4.723,0,0,1,2.4-.568,4.905,4.905,0,0,1,3.1,1.114,4.267,4.267,0,0,1,1.271,1.4l.568.7,2.91-2.208-.557-.7a12.882,12.882,0,0,0-1.985-1.984,9.1,9.1,0,0,0-5.351-1.829,8.5,8.5,0,0,0-4.237.982,8.927,8.927,0,0,0-3.346,3.111,9.478,9.478,0,0,0-1.416,4.794,8.314,8.314,0,0,0,.982,4.092,8.913,8.913,0,0,0,3.534,3.668,9.645,9.645,0,0,0,4.371,1.116,8.476,8.476,0,0,0,5.084-1.7A7.717,7.717,0,0,0,127.57,35.6a15.632,15.632,0,0,0,.279-2.966v-.7h-8.329V35.04Z" transform="translate(12.916 2.79)" fill="#fff"/>
        <rect id="Rectangle_392" data-name="Rectangle 392" width="3.668" height="17.36" transform="translate(146.652 26.536)" fill="#fff"/>
        <path id="Path_8005" data-name="Path 8005" d="M152.446,24.777a8.921,8.921,0,0,0-7.337-.714,9.533,9.533,0,0,0-3.244,1.984,8.763,8.763,0,0,0-2.821,6.344,9.156,9.156,0,0,0,1.114,4.382,9.766,9.766,0,0,0,3.346,3.345,8.1,8.1,0,0,0,4.371,1.116,8.916,8.916,0,0,0,4.66-1.271,10.257,10.257,0,0,0,3.245-3.245,8.409,8.409,0,0,0,1.271-4.516,8.788,8.788,0,0,0-1.271-4.526,11.638,11.638,0,0,0-3.346-2.955m.859,7.8a4.883,4.883,0,0,1-.714,2.542,5.25,5.25,0,0,1-1.973,1.974,4.819,4.819,0,0,1-4.371.423,9.168,9.168,0,0,1-1.984-1.114,5.116,5.116,0,0,1-1.684-3.959,5.018,5.018,0,0,1,1.26-3.345,4.808,4.808,0,0,1,3.959-1.84,7.377,7.377,0,0,1,1.694.279,9.124,9.124,0,0,1,1.974,1.114,5.044,5.044,0,0,1,1.839,3.959" transform="translate(16.227 2.753)" fill="#fff"/>
        <path id="Path_8006" data-name="Path 8006" d="M91.884,29.389a5.63,5.63,0,0,0-5.642-5.5H79.876v17.36h3.68V33.069L89.2,40.974l.29.279h4.46l-5.084-6.78a5.928,5.928,0,0,0,2.965-5.084m-8.273-2.074h2.676a2.074,2.074,0,0,1,2.118,2.007v.112a2.229,2.229,0,0,1-2.118,2.118H83.556Z" transform="translate(9.322 2.789)" fill="#fff"/>
        <path id="Path_8007" data-name="Path 8007" d="M169.814,33.128l-10.3-9.744V41.168h3.68V31.835l10.437,9.878V23.807h-3.814Z" transform="translate(18.616 2.729)" fill="#fff"/>
        <path id="Path_8008" data-name="Path 8008" d="M109.59,63.657h4.092l1.751-3.959h5.508l1.7,3.959h4.092l-8.384-17.729ZM118.2,52.618l1.839,4.092H116.37Z" transform="translate(12.79 5.36)" fill="#fff"/>
        <path id="Path_8009" data-name="Path 8009" d="M137.964,55.473l-10.3-9.544V63.657h3.68v-9.31l10.437,9.733V46.308h-3.814Z" transform="translate(14.899 5.36)" fill="#fff"/>
        <rect id="Rectangle_393" data-name="Rectangle 393" width="3.668" height="17.36" transform="translate(179.398 51.656)" fill="#fff"/>
        <path id="Path_8010" data-name="Path 8010" d="M107.678,51.766a5.63,5.63,0,0,0-5.642-5.508H95.681V63.629h3.68V55.289l5.921,8.2h4.459l-5.083-6.78a5.273,5.273,0,0,0,2.965-4.939m-8.328-2.118h2.676a2.052,2.052,0,0,1,2.118,1.983v.135a2.162,2.162,0,0,1-2.118,2.118H99.294Z" transform="translate(11.166 5.399)" fill="#fff"/>
        <path id="Path_8011" data-name="Path 8011" d="M79.506,46.258v3.534H84.3V63.618h3.68V49.792h4.939V46.258Z" transform="translate(9.279 5.399)" fill="#fff"/>
        <path id="Path_8012" data-name="Path 8012" d="M168.109,46.258v3.534H172.9V63.618h3.713V49.792h4.805V46.258Z" transform="translate(19.619 5.399)" fill="#fff"/>
        <path id="Path_8013" data-name="Path 8013" d="M153.015,53.083c-.557-.279-1.114-.423-1.7-.7a2.23,2.23,0,0,1-.98-.568,1.025,1.025,0,0,1-.568-.859c0-1.26,1.549-1.684,2.542-1.4s1.4,1.114,1.828,1.828l2.865-1.828-.423-.859a6.066,6.066,0,0,0-5.218-2.821,5.786,5.786,0,0,0-3.345,1.114,4.716,4.716,0,0,0-1.984,3.814,4.367,4.367,0,0,0,.992,2.832,6.62,6.62,0,0,0,2.821,1.973c.848.424,1.7.7,2.532,1.116a1.65,1.65,0,0,1,1.282,1.561,1.739,1.739,0,0,1-1.561,1.839,2.943,2.943,0,0,1-2.4-.423,3.845,3.845,0,0,1-1.416-2.409c0-.134-.134-.278-.134-.423l-3.1,1.114c0,.145.557,1.55.557,1.7a4.806,4.806,0,0,0,1.416,2.23,6.357,6.357,0,0,0,8.753.134,5.374,5.374,0,0,0,.568-7.059,10.047,10.047,0,0,0-3.255-1.984" transform="translate(16.928 5.353)" fill="#fff"/>
      </g>
    </g>
  </g>
</svg>
