<svg xmlns="http://www.w3.org/2000/svg" width="58.589" height="48.088" viewBox="0 0 58.589 48.088">
  <g id="Group_7788" data-name="Group 7788" transform="translate(-2890.999 -1779.495)">
    <g id="Group_7778" data-name="Group 7778" transform="translate(2898.709 1797.566)">
      <path id="Path_7799" data-name="Path 7799" d="M0,.764V3.759a1.1,1.1,0,1,0,2.2,0V.764a1.1,1.1,0,0,0-1.1-1.1A1.1,1.1,0,0,0,0,.764" transform="translate(0 0.339)" fill="#848688"/>
    </g>
    <g id="Group_7779" data-name="Group 7779" transform="translate(2904.201 1797.566)">
      <path id="Path_7800" data-name="Path 7800" d="M0,.764V3.759a1.1,1.1,0,1,0,2.2,0V.764a1.1,1.1,0,0,0-1.1-1.1A1.1,1.1,0,0,0,0,.764" transform="translate(0 0.339)" fill="#848688"/>
    </g>
    <g id="Group_7780" data-name="Group 7780" transform="translate(2909.692 1797.566)">
      <path id="Path_7801" data-name="Path 7801" d="M0,.764V3.759a1.1,1.1,0,1,0,2.2,0V.764a1.1,1.1,0,0,0-1.1-1.1A1.1,1.1,0,0,0,0,.764" transform="translate(0 0.339)" fill="#848688"/>
    </g>
    <g id="Group_7781" data-name="Group 7781" transform="translate(2890.999 1779.495)">
      <path id="Path_7802" data-name="Path 7802" d="M40.372,18.335a1.085,1.085,0,0,0-.781-.325H-15.7V-1.38a4.555,4.555,0,0,1,4.554-4.547h1.966A4.554,4.554,0,0,1-4.634-1.553h-.052a7.38,7.38,0,0,0-7.369,7.376V8.013a1.1,1.1,0,0,0,1.1,1.1l14.712,0a1.1,1.1,0,0,0,1.1-1.1V5.82A7.379,7.379,0,0,0-2.433-1.553,6.761,6.761,0,0,0-9.187-8.131h-1.966A6.761,6.761,0,0,0-17.9-1.38V29.454a10.514,10.514,0,0,0,10.5,10.5H30.187a10.514,10.514,0,0,0,10.5-10.5V19.113a1.071,1.071,0,0,0-.312-.778m-1.881,1.878,0,9.234a8.306,8.306,0,0,1-8.294,8.3H-7.4a8.306,8.306,0,0,1-8.3-8.3V20.213ZM-4.692.651l2.184,0A5.176,5.176,0,0,1,2.661,5.82V6.91H-9.864V5.82A5.178,5.178,0,0,1-4.692.651" transform="translate(17.904 8.131)" fill="#848688"/>
    </g>
  </g>
</svg>
