<svg id="Group_7775" data-name="Group 7775" xmlns="http://www.w3.org/2000/svg" width="58.589" height="42.428" viewBox="0 0 58.589 42.428">
  <path id="Path_7796" data-name="Path 7796" d="M39.89,15.4H38.881v-.98a3.065,3.065,0,0,0-2.021-2.881V-5.816A1.011,1.011,0,0,0,35.85-6.828H-12.638a1.011,1.011,0,0,0-1.009,1.012V11.536a3.065,3.065,0,0,0-2.021,2.881v.98h-1.009a1.011,1.011,0,0,0-1.012,1.009V28.527a1.011,1.011,0,0,0,1.012,1.012h1.009v5.052A1.01,1.01,0,0,0-14.66,35.6h4.043a1.01,1.01,0,0,0,1.009-1.009V29.539H32.82v5.052A1.01,1.01,0,0,0,33.829,35.6h4.039a1.011,1.011,0,0,0,1.012-1.009V29.539H39.89A1.011,1.011,0,0,0,40.9,28.527V16.406A1.01,1.01,0,0,0,39.89,15.4m-51.519-20.2H34.838V11.357H30.574V5.492a2.218,2.218,0,0,0-2.22-2.217h-11a2.214,2.214,0,0,0-2.213,2.217v5.865H8.069V5.492A2.217,2.217,0,0,0,5.853,3.275h-11A2.215,2.215,0,0,0-7.362,5.492v5.865h-4.267Zm40.182,10.3v5.865H17.16V5.492a.2.2,0,0,1,.2-.2h11a.2.2,0,0,1,.2.2m-22.5,0v5.865H-5.344V5.492a.2.2,0,0,1,.2-.2h11a.2.2,0,0,1,.2.2m-19.7,8.925a1.038,1.038,0,0,1,1.038-1.042H35.818a1.04,1.04,0,0,1,1.042,1.042v.98H-13.647Zm2.018,19.162h-2.021V29.539h2.021Zm48.489,0H34.838V29.539h2.021Zm2.021-6.061H-15.669v-10.1H38.881Z" transform="translate(17.69 6.828)" fill="#848688"/>
</svg>
