<svg xmlns="http://www.w3.org/2000/svg" width="454.141" height="528.164" viewBox="0 0 454.141 528.164">
  <g id="Icon_ion-documents-outline" data-name="Icon ion-documents-outline" transform="translate(0.5 2.75)" opacity="0.3" style="mix-blend-mode: multiply;isolation: isolate">
    <path id="Path_484" data-name="Path 484" d="M319.1,166.45V365.238c0,28.106-22.034,50.891-49.677,50.891H54.234c-27.7,0-49.734-22.785-49.734-50.891V59.891A51.192,51.192,0,0,1,55.391,9H164.252a28.4,28.4,0,0,1,20.229,8.513L310.726,145.9A29.378,29.378,0,0,1,319.1,166.45Z" transform="translate(0 104.285)" fill="none" stroke="#efebe9" stroke-linejoin="round" stroke-width="10"/>
    <path id="Path_485" data-name="Path 485" d="M14.062,9V133.915A32.778,32.778,0,0,0,46.448,166.3H171.362" transform="translate(147.737 104.285)" fill="none" stroke="#efebe9" stroke-linecap="round" stroke-linejoin="round" stroke-width="10"/>
    <path id="Path_486" data-name="Path 486" d="M12.375,113.285V53.141A51.192,51.192,0,0,1,63.266,2.25H171.988a28.719,28.719,0,0,1,20.368,8.513L318.6,139.147a29.02,29.02,0,0,1,8.374,20.4V358.488c0,28.106-22.034,50.891-49.677,50.891H206.687" transform="translate(121.666 0)" fill="none" stroke="#efebe9" stroke-linejoin="round" stroke-width="10"/>
    <path id="Path_487" data-name="Path 487" d="M21.937,2.25V127.165A32.779,32.779,0,0,0,54.323,159.55H179.237" transform="translate(269.403 0)" fill="none" stroke="#efebe9" stroke-linecap="round" stroke-linejoin="round" stroke-width="10"/>
  </g>
</svg>
