<svg xmlns="http://www.w3.org/2000/svg" width="89.996" height="104.995" viewBox="0 0 89.996 104.995">
  <g id="drag" transform="translate(-12.603 -2)">
    <path id="Path_1" data-name="Path 1" d="M85.482,40.749a8.537,8.537,0,0,0-4.932,1.575,8.524,8.524,0,0,0-13.278-5.208,8.552,8.552,0,0,0-13.117-5.342V30.133a15.074,15.074,0,0,0,7.675-11.259H83.845L75.8,26.923a1.875,1.875,0,0,0,2.651,2.651L89.7,18.325a1.874,1.874,0,0,0,0-2.651L78.447,4.425c-1.658-1.658-4.371.932-2.651,2.651l8.049,8.049H61.775a14.917,14.917,0,0,0-29.618,0H10.4l8.049-8.049A1.876,1.876,0,0,0,15.8,4.424L4.549,15.674a1.874,1.874,0,0,0,0,2.651L15.8,29.574a1.875,1.875,0,0,0,2.651-2.651L10.4,18.874H32.1a14.891,14.891,0,0,0,7.681,11.265V51.151a15.167,15.167,0,0,0-11.405-5.193A1.874,1.874,0,0,0,26.5,47.833v26.04c0,18.264,15.141,33.122,33.749,33.122S94,92.137,94,73.873V49.134A8.461,8.461,0,0,0,85.482,40.749ZM35.718,17a11.249,11.249,0,1,1,18.436,8.624v-9.04a7.188,7.188,0,0,0-14.375,0v9.044A11.173,11.173,0,0,1,35.718,17ZM90.246,73.873c0,16.2-13.458,29.372-30,29.372s-30-13.176-30-29.372V49.858a11.244,11.244,0,0,1,9.53,10.995v7.811a1.875,1.875,0,0,0,3.75,0V16.584a3.439,3.439,0,0,1,6.875,0V59.549a1.875,1.875,0,0,0,3.75,0V38.718a4.768,4.768,0,0,1,9.532,0V58.247a1.875,1.875,0,1,0,3.75,0V43.926a4.766,4.766,0,0,1,9.528,0V58.249a1.875,1.875,0,1,0,3.75,0V49.134a4.768,4.768,0,0,1,9.532,0Z" transform="translate(8.603)"/>
  </g>
</svg>
