<svg xmlns="http://www.w3.org/2000/svg" width="40.158" height="46.851" viewBox="0 0 40.158 46.851">
  <g id="drag" transform="translate(-12.603 -2)">
    <path id="Path_1" data-name="Path 1" d="M40.359,19.291a3.81,3.81,0,0,0-2.2.7,3.8,3.8,0,0,0-5.925-2.324,3.816,3.816,0,0,0-5.853-2.384v-.731A6.726,6.726,0,0,0,29.8,9.53h9.824l-3.591,3.591A.837.837,0,0,0,37.22,14.3l5.02-5.02a.836.836,0,0,0,0-1.183l-5.02-5.02c-.74-.74-1.95.416-1.183,1.183l3.592,3.592H29.781a6.656,6.656,0,0,0-13.216,0H6.856l3.591-3.591A.837.837,0,0,0,9.265,3.082L4.245,8.1a.836.836,0,0,0,0,1.183l5.02,5.02a.837.837,0,0,0,1.183-1.183L6.856,9.53h9.682a6.645,6.645,0,0,0,3.427,5.027v9.376a6.768,6.768,0,0,0-5.089-2.317.836.836,0,0,0-.837.837v11.62a15.062,15.062,0,0,0,30.119,0V23.033A3.775,3.775,0,0,0,40.359,19.291ZM18.153,8.693a5.019,5.019,0,1,1,8.227,3.848V8.508a3.208,3.208,0,0,0-6.414,0v4.036A4.986,4.986,0,0,1,18.153,8.693ZM42.485,34.071a13.389,13.389,0,0,1-26.772,0V23.355a5.017,5.017,0,0,1,4.253,4.906v3.485a.837.837,0,0,0,1.673,0V8.508a1.535,1.535,0,0,1,3.068,0V27.68a.837.837,0,0,0,1.673,0v-9.3a2.128,2.128,0,0,1,4.253,0V27.1a.837.837,0,1,0,1.673,0V20.708a2.127,2.127,0,0,1,4.252,0V27.1a.837.837,0,1,0,1.673,0V23.033a2.128,2.128,0,0,1,4.253,0Z" transform="translate(8.603)"/>
  </g>
</svg>
