<svg xmlns="http://www.w3.org/2000/svg" width="71.922" height="43.153" viewBox="0 0 71.922 43.153">
  <g id="Group_7776" data-name="Group 7776" transform="translate(0)">
    <path id="Path_7797" data-name="Path 7797" d="M45.834,12.043H35.6a.983.983,0,0,1-.879-.559L29.611.056A6.937,6.937,0,0,0,23.3-4.02H-1.635A6.872,6.872,0,0,0-8.507,2.853V8.926a4.8,4.8,0,0,0-2.158-.559A4.638,4.638,0,0,0-15.3,13v7.991a4.638,4.638,0,0,0,4.635,4.635,4.8,4.8,0,0,0,2.158-.559v2.477a4.007,4.007,0,0,0,4,4h2.158A8.691,8.691,0,0,0,6.2,39.133,8.689,8.689,0,0,0,14.747,31.7H35.525a8.629,8.629,0,0,0,17.1-.08,4.274,4.274,0,0,0,4-4.235V22.831A10.794,10.794,0,0,0,45.834,12.043M27.374,1.094l4.875,10.948H12.11V-1.543H23.3a4.478,4.478,0,0,1,4.076,2.637M-1.635-1.543H9.633V11.963H-6.03V2.932a4.451,4.451,0,0,1,4.4-4.475m-9.03,24.773a2.149,2.149,0,0,1-2.158-2.158V13.081a2.149,2.149,0,0,1,2.158-2.158,2.149,2.149,0,0,1,2.158,2.158v7.991a2.149,2.149,0,0,1-2.158,2.158M6.2,36.656a6.233,6.233,0,1,1,6.233-6.233A6.241,6.241,0,0,1,6.2,36.656m37.879,0a6.233,6.233,0,1,1,6.233-6.233,6.241,6.241,0,0,1-6.233,6.233m10.069-9.27a1.8,1.8,0,0,1-1.518,1.758,8.642,8.642,0,0,0-17.1.08H14.747A8.689,8.689,0,0,0,6.2,21.792a8.689,8.689,0,0,0-8.551,7.432H-4.512A1.517,1.517,0,0,1-6.03,27.706V14.52H45.834a8.356,8.356,0,0,1,8.311,8.311Z" transform="translate(15.3 4.02)" fill="#848688"/>
  </g>
</svg>
