<svg xmlns="http://www.w3.org/2000/svg" width="51.233" height="51.236" viewBox="0 0 51.233 51.236">
  <g id="Group_7789" data-name="Group 7789" transform="translate(-2891.001 -1976.471)">
    <g id="Group_7783" data-name="Group 7783" transform="translate(2919.159 1982.38)">
      <path id="Path_7804" data-name="Path 7804" d="M11.09,6.726a1.149,1.149,0,0,0,1.149-1.149v-7.4a1.094,1.094,0,0,0-.094-.433,1.134,1.134,0,0,0-.622-.635,1.1,1.1,0,0,0-.433-.091H3.662A1.147,1.147,0,0,0,2.516-1.837,1.148,1.148,0,0,0,3.662-.688H8.31L-4.579,12.2a1.13,1.13,0,0,0-.339.807,1.138,1.138,0,0,0,.339.81,1.183,1.183,0,0,0,1.634,0L9.941.929V5.577A1.151,1.151,0,0,0,11.09,6.726" transform="translate(4.918 2.983)" fill="#848688"/>
    </g>
    <g id="Group_7784" data-name="Group 7784" transform="translate(2896.921 2004.659)">
      <path id="Path_7805" data-name="Path 7805" d="M11.642.232a1.145,1.145,0,0,0-1.618,0L-2.868,13.124V8.476A1.149,1.149,0,0,0-4.017,7.327,1.148,1.148,0,0,0-5.163,8.476v7.574a1.081,1.081,0,0,0,.078.273,1.168,1.168,0,0,0,.618.622,1.177,1.177,0,0,0,.436.091H3.4a1.147,1.147,0,1,0,0-2.295H-1.251l.28-.283L11.642,1.849a1.145,1.145,0,0,0,0-1.618" transform="translate(5.163 0.103)" fill="#848688"/>
    </g>
    <g id="Group_7785" data-name="Group 7785" transform="translate(2896.908 1982.392)">
      <path id="Path_7806" data-name="Path 7806" d="M11.651,10.53-1.242-2.362H3.406A1.163,1.163,0,0,0,4.542-3.521,1.149,1.149,0,0,0,3.393-4.67H-4.021a1.2,1.2,0,0,0-.436.091,1.179,1.179,0,0,0-.618.622.926.926,0,0,0-.091.436V3.907A1.147,1.147,0,0,0-4.021,5.052,1.148,1.148,0,0,0-2.872,3.907V-.741L10.02,12.148a1.18,1.18,0,0,0,1.634,0,1.144,1.144,0,0,0,0-1.614" transform="translate(5.167 4.67)" fill="#848688"/>
    </g>
    <g id="Group_7786" data-name="Group 7786" transform="translate(2919.174 2004.67)">
      <path id="Path_7807" data-name="Path 7807" d="M5.943,11.867h7.428a1.164,1.164,0,0,0,.436-.091,1.2,1.2,0,0,0,.622-.622,1.177,1.177,0,0,0,.091-.436V3.294a1.156,1.156,0,0,0-2.311.01V7.955l-.28-.28L-.684-4.938a1.166,1.166,0,0,0-1.614,0,1.139,1.139,0,0,0,0,1.618L10.591,9.569H5.943a1.149,1.149,0,1,0,0,2.3" transform="translate(2.635 5.263)" fill="#848688"/>
    </g>
    <g id="Group_7787" data-name="Group 7787" transform="translate(2891.001 1976.471)">
      <path id="Path_7808" data-name="Path 7808" d="M33.551,35.495H-12.077a2.807,2.807,0,0,1-2.8-2.8V-12.935a2.807,2.807,0,0,1,2.8-2.806H33.551a2.807,2.807,0,0,1,2.8,2.806V32.692a2.807,2.807,0,0,1-2.8,2.8M-12.077-13.772a.836.836,0,0,0-.837.837V32.692a.836.836,0,0,0,.837.833H33.551a.835.835,0,0,0,.833-.833V-12.935a.836.836,0,0,0-.833-.837Z" transform="translate(14.879 15.741)" fill="#848688"/>
    </g>
  </g>
</svg>
