<?xml version="1.0" encoding="utf-8"?>
<!-- Generator: Adobe Illustrator 15.0.0, SVG Export Plug-In . SVG Version: 6.00 Build 0)  -->
<svg version="1.2" baseProfile="tiny" id="Layer_1" xmlns="http://www.w3.org/2000/svg" xmlns:xlink="http://www.w3.org/1999/xlink"
	 x="0px" y="0px" width="33.762px" height="32.2px" viewBox="0 0 33.762 32.2" xml:space="preserve">
<g>
	<path fill="none" d="M13.196,16.583c2.257,1.217,5.137,1.217,7.393,0c2.529-1.365,4.101-3.996,4.101-6.867
		c0-4.299-3.497-7.796-7.796-7.796c-4.299,0-7.797,3.497-7.797,7.796C9.096,12.586,10.667,15.218,13.196,16.583z"/>
	<path fill="none" d="M23.074,17.618c-0.564,0.37-1.165,0.69-1.791,0.955c-2.788,1.181-6.013,1.183-8.805,0
		c-0.627-0.266-1.228-0.586-1.791-0.955C5.635,19.913,2.299,24.768,1.95,30.28h29.861C31.463,24.769,28.126,19.913,23.074,17.618z"
		/>
	<path d="M24.237,16.052c-0.762,0.883-1.674,1.647-2.736,2.221c-1.407,0.76-3,1.161-4.607,1.161s-3.201-0.401-4.609-1.161
		c-1.065-0.575-1.98-1.342-2.744-2.229C3.717,18.853,0,24.712,0,31.24v0.96h33.762v-0.96C33.762,24.718,30.053,18.864,24.237,16.052
		z M1.95,30.28c0.349-5.513,3.685-10.367,8.737-12.662c0.563,0.369,1.164,0.689,1.791,0.955c2.792,1.183,6.017,1.181,8.805,0
		c0.626-0.265,1.227-0.585,1.791-0.955c5.052,2.295,8.389,7.15,8.737,12.662H1.95z"/>
	<path d="M12.285,18.272c1.408,0.76,3.001,1.161,4.609,1.161s3.2-0.401,4.607-1.161c1.063-0.573,1.975-1.338,2.736-2.221
		c1.498-1.736,2.372-3.964,2.372-6.335C26.609,4.359,22.251,0,16.894,0c-5.358,0-9.717,4.358-9.717,9.716
		c0,2.367,0.872,4.593,2.365,6.328C10.304,16.931,11.219,17.697,12.285,18.272z M16.894,1.92c4.299,0,7.796,3.497,7.796,7.796
		c0,2.871-1.571,5.501-4.101,6.867c-2.256,1.217-5.136,1.217-7.393,0c-2.529-1.365-4.1-3.997-4.1-6.867
		C9.096,5.417,12.594,1.92,16.894,1.92z"/>
</g>
</svg>
