<svg xmlns="http://www.w3.org/2000/svg" width="37.216" height="30" viewBox="0 0 37.216 30">
  <path id="Path_285" data-name="Path 285" d="M39.375,25.215H36.014v-.706a2.059,2.059,0,0,0-4.119,0v.706H15.321v-.706a2.059,2.059,0,0,0-4.119,0v.706H7.842A2.845,2.845,0,0,0,5,28.057V49.609a2.845,2.845,0,0,0,2.842,2.842H39.375a2.845,2.845,0,0,0,2.842-2.842V28.057A2.845,2.845,0,0,0,39.375,25.215Zm-1.329,6.232v3.081a.412.412,0,0,1-.412.412H33.127a.412.412,0,0,1-.413-.412V31.447h0a.412.412,0,0,1,.413-.412h4.507A.412.412,0,0,1,38.046,31.447ZM14.5,47.7a.413.413,0,0,1-.413.412H9.583A.413.413,0,0,1,9.17,47.7V44.622a.413.413,0,0,1,.412-.412H14.09a.413.413,0,0,1,.412.412Zm0-6.588a.412.412,0,0,1-.413.412H9.583a.412.412,0,0,1-.412-.412V38.034h0a.413.413,0,0,1,.412-.413H14.09a.413.413,0,0,1,.412.413ZM22.35,47.7a.413.413,0,0,1-.413.412H17.431a.412.412,0,0,1-.412-.412V44.622a.412.412,0,0,1,.412-.412h4.507a.413.413,0,0,1,.413.412Zm0-6.588a.412.412,0,0,1-.413.412H17.431a.412.412,0,0,1-.412-.412V38.034h0a.412.412,0,0,1,.412-.413h4.507a.413.413,0,0,1,.413.413Zm0-6.588a.412.412,0,0,1-.413.412H17.431a.412.412,0,0,1-.412-.412V31.447h0a.412.412,0,0,1,.412-.412h4.507a.412.412,0,0,1,.413.412ZM30.2,47.7a.412.412,0,0,1-.412.412H25.279a.412.412,0,0,1-.412-.412V44.622a.412.412,0,0,1,.412-.412h4.507a.412.412,0,0,1,.412.412Zm0-6.588a.412.412,0,0,1-.412.412H25.279a.412.412,0,0,1-.412-.412V38.034h0a.412.412,0,0,1,.412-.413h4.507a.412.412,0,0,1,.412.413Zm0-6.588a.412.412,0,0,1-.412.412H25.279a.412.412,0,0,1-.412-.412V31.447h0a.412.412,0,0,1,.412-.412h4.507a.412.412,0,0,1,.412.412ZM38.046,47.7a.412.412,0,0,1-.412.412H33.127a.413.413,0,0,1-.413-.412V44.622a.413.413,0,0,1,.413-.412h4.507a.412.412,0,0,1,.412.412Zm0-6.588a.412.412,0,0,1-.412.412H33.127a.412.412,0,0,1-.413-.412V38.034h0a.413.413,0,0,1,.413-.413h4.507a.412.412,0,0,1,.412.413Z" transform="translate(-5 -22.451)" fill="#363636"/>
</svg>
