<svg xmlns="http://www.w3.org/2000/svg" viewBox="0 0 469.53 477.67"><g data-name="Layer 2"><g data-name="Layer 1"><path d="M0 434.73v-340a35.82 35.82 0 0 1 35.8-35.79h340z" fill-rule="evenodd" fill="#1ea361"/><path d="M0 441.86v-7.13L375.78 58.94h7.13a35.83 35.83 0 0 1 35.81 35.81v7.14L42.94 477.67H35.8A35.82 35.82 0 0 1 0 441.86z" fill="#fedb43" fill-rule="evenodd"/><path fill="#5384c4" fill-rule="evenodd" d="M42.94 477.67l166.42-166.42 166.42 166.42H42.94z"/><path d="M375.78 477.67l-169-169 42.95-42.93 169 169v7.13a35.83 35.83 0 0 1-35.81 35.81z" fill="#fff" fill-rule="evenodd"/><path fill="#c2c2c1" fill-rule="evenodd" d="M418.72 434.73L252.3 268.31l166.42-166.42v332.84z"/><path d="M74.68 105.23c21.31-9.75 48-5.77 65.27 10.19-5.42 5.52-11 10.91-16.54 16.27-17.3-17.17-49.82-9-57.92 13.69-10.61 22.36 7 51.75 32 52.07 16.32 1.9 32.6-9 36.05-25.28-11.4 0-22.78-.09-34.16.08-.33-7-.37-14.05-.22-21.09 19 .49 38.55-1.09 57.31.77 1.43 13.93.45 28.71-7 40.92-11.74 21.86-39.47 31.4-62.93 25.88-29-6-50.72-35.76-46.76-65.24 1.94-20.79 15.99-39.63 34.9-48.26z" fill="#efefef"/><path d="M345.59 0h13.61c33.92 1.94 67.09 18.52 87.65 45.78 13.47 17.22 21 38.6 22.68 60.31v8.06c-.8 42.08-27.73 76.63-51 109.36-26.17 37-50.37 77.31-57.07 122.9-1.79 7.72.36 18.54-8.87 22-2.17-1.69-4.7-3.09-6.22-5.45-2.74-25.49-9.1-50.66-20-73.94-12.34-27.11-29.52-51.62-47-75.61-10.63-14.38-20.65-29.27-28.93-45.13-13-23.78-17.87-51.88-12.55-78.56a110.65 110.65 0 0 1 30.65-55.67A121.9 121.9 0 0 1 345.59 0zm-2.65 74.13c-16.1 3.59-29.61 17.83-31 34.49-1.69 15.51 7.39 31.25 21.29 38.09 15.07 8 34.86 5.54 47.45-6 11.75-10.39 16-28.35 9.9-42.88-7.23-18.17-28.79-28.52-47.64-23.7z" fill="#dc4b3e"/><path d="M342.94 74.13c18.85-4.82 40.41 5.53 47.68 23.71 6.13 14.53 1.85 32.49-9.9 42.88-12.59 11.53-32.38 14-47.45 6-13.9-6.84-23-22.58-21.29-38.09 1.35-16.63 14.86-30.91 30.96-34.5z" fill="#802c27"/></g></g></svg>