<?xml version="1.0" encoding="utf-8"?>
<!-- Generator: Adobe Illustrator 15.0.0, SVG Export Plug-In . SVG Version: 6.00 Build 0)  -->
<svg version="1.2" baseProfile="tiny" id="Layer_1" xmlns="http://www.w3.org/2000/svg" xmlns:xlink="http://www.w3.org/1999/xlink"
	 x="0px" y="0px" width="267.3px" height="535.2px" viewBox="0 0 267.3 535.2" xml:space="preserve">
<g>
	<path fill="none" d="M115,54h38.2c2.9,0,5.2-2,5.2-4.5c0-2.5-2.3-4.5-5.2-4.5H115c-2.9,0-5.2,2-5.2,4.5C109.8,51.9,112.1,54,115,54
		z"/>
	<path fill="none" d="M95.1,53.8c2.4,0,4.4-2,4.4-4.4c0-2.4-2-4.4-4.4-4.4c-2.4,0-4.4,2-4.4,4.4C90.7,51.8,92.7,53.8,95.1,53.8z"/>
	<rect x="16.8" y="86.5" fill="none" width="234.6" height="351.9"/>
	<path fill="none" d="M134.2,459.5c-14.3,0-25.8,11.6-25.8,25.8c0,14.2,11.6,25.8,25.8,25.8c14.2,0,25.8-11.6,25.8-25.8
		C160,471.1,148.4,459.5,134.2,459.5z"/>
	<path d="M225.6,3.8h-6.7V2.8c0-1.5-1.2-2.8-2.8-2.8h-42.3c-1.5,0-2.8,1.2-2.8,2.8v1.1H46.2c-23,0-41.7,18.7-41.7,41.7v5H2.8
		c-1.5,0-2.8,1.2-2.8,2.8v21.2c0,1.5,1.2,2.8,2.8,2.8h1.8v36.7H2.8c-1.5,0-2.8,1.2-2.8,2.8v14.1c0,1.5,1.2,2.8,2.8,2.8h1.8V156H2.8
		c-1.5,0-2.8,1.2-2.8,2.8v14.1c0,1.5,1.2,2.8,2.8,2.8h1.8v317.9c0,23,18.7,41.7,41.7,41.7h179.4c23,0,41.7-18.7,41.7-41.7V45.5
		C267.3,22.5,248.6,3.8,225.6,3.8z M115,44.9h38.2c2.9,0,5.2,2,5.2,4.5c0,2.5-2.3,4.5-5.2,4.5H115c-2.9,0-5.2-2-5.2-4.5
		C109.8,46.9,112.1,44.9,115,44.9z M95.1,45c2.4,0,4.4,2,4.4,4.4c0,2.4-2,4.4-4.4,4.4c-2.4,0-4.4-2-4.4-4.4C90.7,47,92.7,45,95.1,45
		z M134.2,511.2c-14.3,0-25.8-11.6-25.8-25.8c0-14.3,11.6-25.8,25.8-25.8c14.2,0,25.8,11.6,25.8,25.8
		C160,499.6,148.4,511.2,134.2,511.2z M251.5,438.4H16.8V86.5h234.6V438.4z"/>
</g>
</svg>
