<?xml version="1.0" encoding="utf-8"?>
<!-- Generator: Adobe Illustrator 15.0.0, SVG Export Plug-In . SVG Version: 6.00 Build 0)  -->
<svg version="1.2" baseProfile="tiny" id="Layer_1" xmlns="http://www.w3.org/2000/svg" xmlns:xlink="http://www.w3.org/1999/xlink"
	 x="0px" y="0px" width="34.005px" height="33.995px" viewBox="0 0 34.005 33.995" xml:space="preserve">
<g>
	<path fill="none" d="M26.372,14.146c0-6.742-5.484-12.226-12.227-12.226c-6.742,0-12.226,5.484-12.226,12.226
		c0,6.741,5.484,12.225,12.226,12.225C20.888,26.372,26.372,20.887,26.372,14.146z"/>
	<polygon fill="none" points="23.356,25.088 29.945,31.677 31.688,29.935 25.126,23.375 	"/>
	<path d="M26.116,21.65c-1.133,1.8-2.656,3.324-4.455,4.459l7.605,7.604c0.188,0.188,0.433,0.281,0.679,0.281
		s0.491-0.094,0.679-0.281l3.1-3.1c0.18-0.18,0.281-0.424,0.281-0.679s-0.102-0.499-0.281-0.679L26.116,21.65z M29.945,31.677
		l-6.589-6.589l1.77-1.714l6.562,6.561L29.945,31.677z"/>
	<path d="M26.116,21.65c1.37-2.178,2.176-4.746,2.176-7.503C28.292,6.346,21.946,0,14.146,0C6.349,0,0.005,6.341,0,14.137v0.02
		c0.005,7.794,6.349,14.135,14.146,14.135c2.763,0,5.335-0.809,7.516-2.183C23.46,24.974,24.983,23.45,26.116,21.65z M1.919,14.146
		c0-6.742,5.484-12.226,12.226-12.226c6.742,0,12.227,5.484,12.227,12.226c0,6.741-5.484,12.225-12.227,12.225
		C7.404,26.372,1.919,20.887,1.919,14.146z"/>
</g>
</svg>
