<?xml version="1.0" encoding="utf-8"?>
<!-- Generator: Adobe Illustrator 15.1.0, SVG Export Plug-In . SVG Version: 6.00 Build 0)  -->
<!DOCTYPE svg PUBLIC "-//W3C//DTD SVG 1.1//EN" "http://www.w3.org/Graphics/SVG/1.1/DTD/svg11.dtd">
<svg version="1.1" id="Layer_1" xmlns="http://www.w3.org/2000/svg" xmlns:xlink="http://www.w3.org/1999/xlink" x="0px" y="0px"
	 width="186.774px" height="125.805px" viewBox="0 0 186.774 125.805" enable-background="new 0 0 186.774 125.805"
	 xml:space="preserve">
<g>
	<defs>
		<rect id="SVGID_1_" width="186.774" height="125.805"/>
	</defs>
	<clipPath id="SVGID_2_">
		<use xlink:href="#SVGID_1_"  overflow="visible"/>
	</clipPath>
	<path clip-path="url(#SVGID_2_)" fill="#FFFFFF" d="M37.936,124.768c0.48,0,0.769-0.17,0.769-0.537v-0.013
		c0-0.332-0.247-0.536-0.804-0.536h-1.256v1.086H37.936z M37.647,122.778c0.48,0,0.783-0.153,0.783-0.521v-0.015
		c0-0.323-0.254-0.508-0.713-0.508h-1.072v1.044H37.647z M35.586,120.781h2.294c0.564,0,1.009,0.155,1.291,0.438
		c0.226,0.226,0.339,0.502,0.339,0.84v0.014c0,0.559-0.297,0.868-0.65,1.066c0.572,0.219,0.925,0.55,0.925,1.214v0.013
		c0,0.904-0.734,1.356-1.849,1.356h-2.35V120.781z"/>
</g>
<path fill="#FFFFFF" d="M46.25,122.052l0.656,1.601h-1.313L46.25,122.052z M45.761,120.747l-2.117,4.975h1.108l0.452-1.109h2.089
	l0.452,1.109h1.135l-2.116-4.975H45.761z"/>
<polygon fill="#FFFFFF" points="55.394,120.782 54.194,122.764 53.015,120.782 51.745,120.782 53.643,123.772 53.643,125.721 
	54.73,125.721 54.73,123.751 56.629,120.782 "/>
<polygon fill="#FFFFFF" points="63.91,120.782 62.619,124.26 61.328,120.782 60.128,120.782 62.125,125.756 63.085,125.756 
	65.082,120.782 "/>
<rect x="69.281" y="120.781" fill="#FFFFFF" width="1.086" height="4.94"/>
<polygon fill="#FFFFFF" points="74.99,120.782 74.99,125.721 78.751,125.721 78.751,124.753 76.069,124.753 76.069,123.716 
	78.398,123.716 78.398,122.75 76.069,122.75 76.069,121.749 78.716,121.749 78.716,120.782 "/>
<polygon fill="#FFFFFF" points="86.02,120.767 84.911,124.125 83.888,120.781 82.723,120.781 84.41,125.757 85.356,125.757 
	86.471,122.524 87.586,125.757 88.531,125.757 90.218,120.781 89.083,120.781 88.058,124.125 86.951,120.767 "/>
<polygon fill="#FFFFFF" points="103.272,120.782 101.981,124.26 100.69,120.782 99.489,120.782 101.486,125.756 102.447,125.756 
	104.444,120.782 "/>
<rect x="108.643" y="120.781" fill="#FFFFFF" width="1.086" height="4.94"/>
<polygon fill="#FFFFFF" points="114.352,120.782 114.352,125.721 117.901,125.721 117.901,124.732 115.438,124.732 115.438,120.782 
	"/>
<polygon fill="#FFFFFF" points="122.106,120.782 122.106,125.721 125.657,125.721 125.657,124.732 123.193,124.732 123.193,120.782 
	"/>
<path fill="#FFFFFF" d="M132.043,122.052l0.655,1.601h-1.312L132.043,122.052z M131.556,120.747l-2.117,4.975h1.107l0.453-1.109
	h2.088l0.452,1.109h1.135l-2.116-4.975H131.556z"/>
<g>
	<defs>
		<rect id="SVGID_3_" width="186.774" height="125.805"/>
	</defs>
	<clipPath id="SVGID_4_">
		<use xlink:href="#SVGID_3_"  overflow="visible"/>
	</clipPath>
	<path clip-path="url(#SVGID_4_)" fill="#FFFFFF" d="M138.289,123.265v-0.015c0-1.404,1.094-2.554,2.589-2.554
		c0.89,0,1.426,0.239,1.94,0.678l-0.685,0.826c-0.38-0.318-0.719-0.502-1.291-0.502c-0.791,0-1.418,0.698-1.418,1.539v0.013
		c0,0.903,0.621,1.566,1.496,1.566c0.395,0,0.747-0.098,1.023-0.296v-0.706h-1.095v-0.938h2.146v2.144
		c-0.509,0.433-1.206,0.784-2.11,0.784C139.347,125.805,138.289,124.725,138.289,123.265"/>
</g>
<polygon fill="#FFFFFF" points="147.427,120.782 147.427,125.721 151.188,125.721 151.188,124.753 148.505,124.753 148.505,123.716 
	150.834,123.716 150.834,122.75 148.505,122.75 148.505,121.749 151.152,121.749 151.152,120.782 "/>
<g>
	<defs>
		<rect id="SVGID_5_" width="186.774" height="125.805"/>
	</defs>
	<clipPath id="SVGID_6_">
		<use xlink:href="#SVGID_5_"  overflow="visible"/>
	</clipPath>
	<path clip-path="url(#SVGID_6_)" fill="#FFFFFF" d="M7.317,106.31c0.102-1.112-0.39-1.898-2.165-2.19c-0.78-0.132-2.699,0-2.699,0
		v4.603h2.309C6.178,108.722,7.142,108.047,7.317,106.31 M4.762,98.192H2.453v3.907c0,0,2.042,0.07,2.77,0
		c1.355-0.131,1.653-1.362,1.653-2.403C6.876,98.434,5.613,98.192,4.762,98.192 M8.938,103.988c1.991,2.776-0.051,6.745-4.176,6.745
		H0V96.142h3.971c0.872,0,2.022-0.03,2.997,0.314c3.653,1.292,2.216,5.996,0.246,6.431C7.789,103.058,8.507,103.382,8.938,103.988"
		/>
	<path clip-path="url(#SVGID_6_)" fill="#FFFFFF" d="M21.777,102.512c0,0,2.032,0.071,2.76,0c1.355-0.14,1.775-1.635,1.662-2.774
		c-0.123-1.263-1.262-1.516-2.114-1.516h-2.308V102.512z M31.248,108.996v1.433c-0.462,0.354-1.088,0.729-2.247,0.557
		c-2.022-0.282-4.936-5.24-5.654-6.452h-1.57v6.2h-2.453V96.182h3.961c0.883,0,2.032-0.04,3.007,0.313
		c3.263,1.152,3.14,6.665-0.421,7.816c0.585,1.252,2.134,3.978,3.551,4.645C30.006,109.238,30.838,109.177,31.248,108.996"/>
</g>
<rect x="39.643" y="96.163" fill="#FFFFFF" width="2.453" height="14.569"/>
<path fill="#FFFFFF" d="M59.89,105.25l-2.217-5.22l-2.216,5.22H59.89z M64.733,110.733h-2.514l-1.559-3.686h-5.963l-1.569,3.686
	h-2.504l6.403-14.57h1.365L64.733,110.733z"/>
<g>
	<defs>
		<rect id="SVGID_7_" width="186.774" height="125.805"/>
	</defs>
	<clipPath id="SVGID_8_">
		<use xlink:href="#SVGID_7_"  overflow="visible"/>
	</clipPath>
	<path clip-path="url(#SVGID_8_)" fill="#FFFFFF" d="M75.736,102.512c0,0,2.032,0.071,2.76,0c1.354-0.14,1.775-1.635,1.662-2.774
		c-0.123-1.263-1.262-1.516-2.114-1.516h-2.308V102.512z M85.208,108.996v1.433c-0.462,0.354-1.088,0.729-2.247,0.557
		c-2.022-0.282-4.936-5.24-5.654-6.452h-1.57v6.2h-2.453V96.182h3.961c0.882,0,2.032-0.04,3.007,0.313
		c3.263,1.152,3.14,6.665-0.421,7.816c0.584,1.252,2.134,3.978,3.55,4.645C83.965,109.238,84.796,109.177,85.208,108.996"/>
</g>
<polygon fill="#FFFFFF" points="107.744,98.152 104.06,98.152 104.06,110.733 101.607,110.733 101.607,98.152 97.934,98.152 
	97.934,96.131 107.744,96.131 "/>
<g>
	<defs>
		<rect id="SVGID_9_" width="186.774" height="125.805"/>
	</defs>
	<clipPath id="SVGID_10_">
		<use xlink:href="#SVGID_9_"  overflow="visible"/>
	</clipPath>
	<path clip-path="url(#SVGID_10_)" fill="#FFFFFF" d="M125.477,103.311c0-2.928-1.785-5.291-4.925-5.291
		c-3.1,0-4.926,2.363-4.926,5.291c0,2.927,1.796,5.29,4.926,5.29C123.589,108.601,125.477,106.238,125.477,103.311 M120.541,95.849
		c4.341,0,7.398,3.373,7.398,7.521c0,4.16-2.996,7.532-7.398,7.532c-4.443,0-7.398-3.372-7.398-7.532
		C113.143,99.222,115.975,95.849,120.541,95.849"/>
</g>
<polygon fill="#FFFFFF" points="152.199,96.122 147.767,110.733 145.98,110.733 142.892,100.514 139.804,110.733 138.09,110.733 
	133.646,96.122 136.202,96.122 138.941,106.098 141.825,96.122 143.96,96.122 146.874,106.208 149.654,96.122 "/>
<polygon fill="#FFFFFF" points="170.221,96.163 170.221,110.732 168.302,110.732 161.324,100.928 161.324,110.732 158.871,110.732 
	158.871,96.163 160.656,96.163 167.769,105.966 167.769,96.163 "/>
<g>
	<defs>
		<rect id="SVGID_11_" width="186.774" height="125.805"/>
	</defs>
	<clipPath id="SVGID_12_">
		<use xlink:href="#SVGID_11_"  overflow="visible"/>
	</clipPath>
	<path clip-path="url(#SVGID_12_)" fill="#FFFFFF" d="M185.82,98.757c-0.308-0.183-1.54-0.556-2.586-0.556
		c-1.262,0-1.991,0.474-2.319,1.101c-0.851,1.627,1.026,2.515,2.269,3.11c1.375,0.666,3.212,1.756,3.53,3.646
		c0.409,2.494-1.305,4.814-4.033,4.814c-2.73,0-4.095-1.018-4.823-1.372v-2.475c1.355,1.374,3.581,1.898,5.121,1.597
		c1.467-0.293,1.938-2.333,0.738-3.262c-1.026-0.808-2.812-1.515-3.899-2.262c-1.744-1.212-2.073-3.515-0.646-5.331
		c1.344-1.718,2.82-1.747,3.98-1.747c1.139-0.01,2.36,0.414,2.668,0.616V98.757z"/>
	<path clip-path="url(#SVGID_12_)" fill="#FFFFFF" d="M100.445,78.934l-0.617-11.787c0.251-0.031,0.492-0.139,0.685-0.33
		l15.532-15.532V40.804l4.623-2.633v8.497l10.96-11.027c0.242,1.745,0.378,3.524,0.378,5.335
		C132.006,59.856,118.379,75.608,100.445,78.934 M88.008,79.209l1.517-24.063l0.168-0.092c-0.046-0.083-0.1-0.163-0.146-0.246
		l1.308-20.747l-9.974-6.751c0.749-2.904,2.241-12.207-6.511-19.927c1.551-0.882,3.169-1.658,4.845-2.322
		c0.701,10.307,7.552,13.582,9.805,14.381l1.398,5.216c-0.959,0.12-2.878-0.175-4.66-3.655c-0.296-0.58-1.004-0.809-1.585-0.513
		c-0.579,0.297-0.808,1.006-0.512,1.585c2.101,4.106,4.692,4.927,6.426,4.927c0.354,0,0.667-0.036,0.938-0.083l1.686,6.288
		l1.401-1.096c0.133-0.103,1.234-0.991,2.704-2.835c0.359,0.069,0.754,0.114,1.179,0.114c1.852,0,4.142-0.813,5.398-3.766
		c0.255-0.599-0.023-1.291-0.622-1.546c-0.599-0.253-1.291,0.024-1.546,0.623c-0.705,1.655-1.829,2.18-2.768,2.297
		c2.813-4.308,6.091-11.587,6.929-22.725c1.233,0.405,2.438,0.87,3.613,1.391c-2.734,4.796-1.523,8.877-0.869,10.421
		c-3.001,5.445-2.897,9.798-2.676,11.563l-9.71,6.592l1.082,20.653c-0.031,0.053-0.066,0.107-0.097,0.161l0.107,0.059l1.267,24.18
		c-1.547,0.189-3.119,0.299-4.717,0.299C91.562,79.592,89.768,79.455,88.008,79.209 M54.769,40.976c0-1.809,0.134-3.586,0.376-5.329
		L66.1,46.667v-8.414c0.688,0.361,1.373,0.723,2.063,1.092l2.56,1.458v10.481l15.532,15.532c0.051,0.051,0.107,0.095,0.165,0.135
		l-0.749,11.865C68.062,75.232,54.769,59.626,54.769,40.976 M67.406,12.428c3.977,5.53,8.399,6.399,10.784,6.399
		c0.214,0,0.407-0.008,0.586-0.019c0.664,2.99,0.364,5.57,0.036,7.103l-14.771-9.997C65.091,14.685,66.212,13.517,67.406,12.428
		 M60.65,20.526c0.596-0.953,1.229-1.879,1.904-2.773l5.809,3.932C66.323,21.969,63.354,21.994,60.65,20.526 M70.006,31.028
		c-0.085-1.275-0.456-3.45-1.917-4.948c-0.454-0.466-1.2-0.475-1.666-0.021c-0.466,0.455-0.475,1.201-0.02,1.666
		c0.726,0.745,1.038,1.835,1.173,2.719c-2.992-0.848-6.283-2.261-9.771-4.478c0.494-1.167,1.045-2.306,1.648-3.413
		c2.29,1.27,4.692,1.658,6.757,1.658c2.185,0,3.985-0.427,4.875-0.685l10.734,7.266C79.484,31.42,75.325,32.083,70.006,31.028
		 M87.396,51.457c-0.941-1.294-1.984-2.536-3.095-3.716c0.924-2.848,1.759-6.585,0.189-10.404c-0.247-0.602-0.935-0.891-1.537-0.642
		c-0.602,0.247-0.889,0.936-0.642,1.537c0.907,2.206,0.941,4.543,0.091,7.637c-1.174-1.084-2.405-2.083-3.677-2.979
		c-0.111-1.362-0.498-4.958-1.664-8.957c3.576-0.196,6.11-1.02,7.236-1.463l4.121,2.788L87.396,51.457z M63.744,34.118v6.837
		l-8.099-8.146c0.34-1.57,0.776-3.102,1.3-4.595c6.826,4.248,12.92,5.601,17.666,5.749c0.858,2.764,1.319,5.418,1.559,7.237
		c-2.271-1.415-4.615-2.718-6.955-3.966L63.744,34.118z M73.078,42.091c1.225,0.72,2.435,1.457,3.608,2.237
		c0.515,0.342,1.023,0.707,1.524,1.085c-0.55,0.6-1.155,1.009-2.06,1.42c-0.592,0.269-0.854,0.968-0.585,1.56
		c0.198,0.434,0.626,0.691,1.073,0.691c0.163,0,0.329-0.034,0.487-0.106c1.24-0.564,2.127-1.188,2.917-2.078
		c2.801,2.437,5.268,5.38,7.107,8.485l-0.533,8.461L73.078,50.31V42.091z M78.07,16.47c-1.87-0.037-5.496-0.815-8.861-5.577
		c0.977-0.787,1.993-1.527,3.045-2.217C75.313,11.208,77.088,13.917,78.07,16.47 M88.241,16.539
		c-2.484-1.346-6.423-4.675-6.714-12.312c1.041-0.337,2.101-0.626,3.178-0.875L88.241,16.539z M93.661,2.362
		c-0.223,4.181-0.556,16.523,2.933,20.462c0.325,0.366,0.677,0.656,1.052,0.877c-1.363,2.462-2.699,4.172-3.644,5.225L87.021,2.89
		c2.073-0.345,4.198-0.534,6.367-0.534C93.479,2.355,93.568,2.362,93.661,2.362 M98.723,21.595
		c-0.115-0.082-0.236-0.188-0.366-0.333c-0.896-1.014-1.485-2.955-1.861-5.273c1.526-0.861,4.271-3.29,4.401-9.665
		c0.015-0.651-0.502-1.188-1.152-1.202c-0.636-0.015-1.188,0.503-1.203,1.153c-0.084,4.107-1.357,6.106-2.376,7.058
		c-0.357-3.869-0.292-8.152-0.149-10.878c2.421,0.164,4.783,0.542,7.063,1.133C102.544,11.488,100.709,17.385,98.723,21.595
		 M122.735,15.917l-15.015,10.194c-0.008-1.065,0.118-2.558,0.618-4.361c1.578-0.054,5.637-0.723,8.702-5.867
		c0.333-0.559,0.149-1.282-0.409-1.615c-0.562-0.335-1.283-0.15-1.616,0.409c-1.98,3.325-4.369,4.318-5.809,4.607
		c1.186-2.794,3.28-6.065,6.908-9.504C118.555,11.563,120.775,13.624,122.735,15.917 M118.313,21.769l5.911-4.013
		c0.642,0.851,1.244,1.733,1.816,2.637C122.08,22.123,119.656,22.102,118.313,21.769 M115.975,23.354
		c0.735,0.463,1.97,0.971,3.868,0.971c1.817,0,4.247-0.476,7.408-1.893c0.548,0.996,1.049,2.022,1.509,3.069
		c-4.789,3.182-8.997,4.868-12.55,5.655c0.385-0.797,1.201-1.846,2.921-2.854c0.562-0.329,0.751-1.051,0.422-1.612
		c-0.33-0.561-1.051-0.751-1.611-0.421c-3.16,1.85-4.073,4.017-4.331,5.322c-3.883,0.447-6.788-0.178-8.573-0.811L115.975,23.354z
		 M111.134,6.692c1.023,0.532,2.021,1.11,2.989,1.729c-1.769,1.715-3.186,3.396-4.324,5.01
		C109.51,11.81,109.549,9.404,111.134,6.692 M99.217,55.479c0.848-1.441,1.821-2.852,2.914-4.192c0.874,1.107,1.83,1.828,3.244,2.47
		c0.157,0.073,0.322,0.106,0.486,0.106c0.446,0,0.876-0.256,1.072-0.69c0.271-0.592,0.007-1.291-0.584-1.56
		c-1.224-0.558-1.902-1.106-2.633-2.138c1.828-1.959,3.873-3.72,6.02-5.148c1.282-0.853,2.61-1.653,3.952-2.435v8.417L99.68,64.319
		L99.217,55.479z M121.271,35.115l-0.008-0.015l-0.487,0.255c-4.121,2.152-8.382,4.377-12.344,7.011
		c-0.854,0.568-1.687,1.199-2.505,1.858c0.28-1.969,1.136-4.646,3.707-5.661c0.605-0.238,0.903-0.922,0.664-1.528
		c-0.239-0.605-0.924-0.902-1.528-0.663c-2.178,0.859-3.472,2.468-4.239,4.164c-1.188-1.836-0.796-4.054-0.773-4.175
		c0.124-0.636-0.291-1.254-0.928-1.38c-0.638-0.125-1.259,0.289-1.385,0.927c-0.036,0.191-0.835,4.465,2.266,7.27
		c-0.279,1.441-0.283,2.672-0.266,3.216c-1.627,1.565-3.127,3.283-4.438,5.09l-0.841-16.04l4.544-3.085
		c1.436,0.691,4.282,1.738,8.344,1.738c4.691,0,10.999-1.399,18.612-6.363c0.599,1.64,1.085,3.334,1.461,5.07l-8.104,8.151v-6.837
		L121.271,35.115z M93.388,0C70.794,0,52.412,18.382,52.412,40.976c0,22.592,18.382,40.972,40.976,40.972
		s40.974-18.38,40.974-40.972C134.361,18.382,115.981,0,93.388,0"/>
</g>
</svg>
