<?xml version="1.0" encoding="utf-8"?>
<!-- Generator: Adobe Illustrator 15.0.0, SVG Export Plug-In . SVG Version: 6.00 Build 0)  -->
<!DOCTYPE svg PUBLIC "-//W3C//DTD SVG 1.1//EN" "http://www.w3.org/Graphics/SVG/1.1/DTD/svg11.dtd">
<svg version="1.1" id="Layer_1" xmlns="http://www.w3.org/2000/svg" xmlns:xlink="http://www.w3.org/1999/xlink" x="0px" y="0px"
	 width="31.674px" height="34.234px" viewBox="0 0 31.674 34.234" enable-background="new 0 0 31.674 34.234" xml:space="preserve">
<g>
	<defs>
		<rect id="SVGID_1_" y="0" width="31.674" height="34.234"/>
	</defs>
	<clipPath id="SVGID_2_">
		<use xlink:href="#SVGID_1_"  overflow="visible"/>
	</clipPath>
	<path clip-path="url(#SVGID_2_)" fill="none" stroke="#FFFFFF" stroke-width="1.92" stroke-miterlimit="22.926" d="M3.537,7.586
		h24.601c0.708,0,1.248,0.587,1.287,1.288l1.288,23.113c0.038,0.698-0.59,1.287-1.288,1.287H2.25c-0.7,0-1.327-0.58-1.288-1.287
		L2.25,8.874C2.289,8.166,2.829,7.586,3.537,7.586z"/>
	<path clip-path="url(#SVGID_2_)" fill="#FFFFFF" d="M10.254,10.345c0.879,0,1.592,0.713,1.592,1.591
		c0,0.879-0.713,1.592-1.592,1.592s-1.591-0.713-1.591-1.592C8.663,11.058,9.375,10.345,10.254,10.345 M21.419,10.345
		c0.878,0,1.592,0.713,1.592,1.591c0,0.879-0.714,1.592-1.592,1.592c-0.879,0-1.592-0.713-1.592-1.592
		C19.827,11.058,20.54,10.345,21.419,10.345"/>
	<path clip-path="url(#SVGID_2_)" fill="none" stroke="#FFFFFF" stroke-width="1.92" stroke-miterlimit="22.926" d="M21.254,11.123
		V6.376c0-2.976-2.438-5.416-5.417-5.416c-2.979,0-5.417,2.437-5.417,5.416v4.747"/>
</g>
</svg>
