<?xml version="1.0" encoding="utf-8"?>
<!-- Generator: Adobe Illustrator 15.0.0, SVG Export Plug-In . SVG Version: 6.00 Build 0)  -->
<!DOCTYPE svg PUBLIC "-//W3C//DTD SVG 1.1//EN" "http://www.w3.org/Graphics/SVG/1.1/DTD/svg11.dtd">
<svg version="1.1" id="Layer_1" xmlns="http://www.w3.org/2000/svg" xmlns:xlink="http://www.w3.org/1999/xlink" x="0px" y="0px"
	 width="50px" height="50px" viewBox="0 0 50 50" enable-background="new 0 0 50 50" xml:space="preserve">
<g>
	<g>
		<defs>
			<rect id="SVGID_1_" width="50" height="50"/>
		</defs>
		<clipPath id="SVGID_2_">
			<use xlink:href="#SVGID_1_"  overflow="visible"/>
		</clipPath>
		<path clip-path="url(#SVGID_2_)" fill="#FFFFFF" d="M43.693,41.573C47.613,37.158,50,31.354,50,25C50,11.214,38.785,0,25,0
			S0,11.214,0,25s11.215,25,25,25c7.354,0,13.975-3.191,18.552-8.261C43.605,41.689,43.65,41.634,43.693,41.573 M36.335,37.41
			c0.981-3.37,1.571-7.244,1.651-11.411h9.986c-0.225,5.224-2.195,9.995-5.346,13.752C40.773,38.799,38.648,38.014,36.335,37.41
			 M7.37,39.749c-3.149-3.756-5.12-8.528-5.345-13.75h9.987c0.083,4.167,0.669,8.041,1.652,11.41
			C11.351,38.012,9.226,38.798,7.37,39.749 M7.371,10.25c1.856,0.952,3.98,1.737,6.294,2.34c-0.982,3.369-1.57,7.243-1.652,11.411
			H2.025C2.25,18.779,4.222,14.005,7.371,10.25 M42.629,10.25c3.148,3.756,5.121,8.53,5.346,13.75h-9.986
			c-0.08-4.167-0.67-8.042-1.651-11.411C38.648,11.985,40.773,11.201,42.629,10.25 M35.986,24H26V13.974
			c2.889-0.06,5.706-0.372,8.344-0.917C35.309,16.292,35.9,20.035,35.986,24 M26,11.975V2.104c3.1,0.617,5.873,4.058,7.709,9.042
			C31.271,11.633,28.672,11.917,26,11.975 M24,2.104v9.871c-2.671-0.058-5.272-0.34-7.708-0.828C18.126,6.162,20.9,2.721,24,2.104
			 M24,13.974V24h-9.987c0.086-3.965,0.679-7.708,1.645-10.943C18.293,13.602,21.112,13.915,24,13.974 M14.013,25.999H24v10.026
			c-2.888,0.06-5.706,0.371-8.344,0.916C14.691,33.707,14.099,29.966,14.013,25.999 M24,38.025v9.871
			c-3.1-0.617-5.874-4.06-7.709-9.045C18.728,38.364,21.329,38.082,24,38.025 M26,47.896v-9.871c2.672,0.057,5.271,0.34,7.709,0.826
			C31.874,43.839,29.102,47.28,26,47.896 M26,36.025V25.999h9.986c-0.086,3.967-0.68,7.708-1.645,10.944
			C31.706,36.398,28.889,36.086,26,36.025 M41.227,8.715c-1.643,0.793-3.498,1.454-5.506,1.971c-1.181-3.298-2.766-6-4.629-7.861
			C34.975,3.894,38.452,5.952,41.227,8.715 M14.28,10.687c-2.009-0.517-3.865-1.177-5.507-1.971
			c2.775-2.765,6.252-4.822,10.136-5.891C17.045,4.687,15.459,7.389,14.28,10.687 M8.771,41.282
			c1.643-0.793,3.499-1.453,5.508-1.972c1.18,3.301,2.765,6.002,4.629,7.862C15.025,46.107,11.547,44.049,8.771,41.282
			 M35.721,39.313c2.01,0.519,3.864,1.179,5.506,1.973c-2.772,2.765-6.252,4.822-10.135,5.891
			C32.955,45.313,34.54,42.611,35.721,39.313"/>
	</g>
</g>
</svg>
