<?xml version="1.0" encoding="utf-8"?>
<!-- Generator: Adobe Illustrator 15.0.0, SVG Export Plug-In . SVG Version: 6.00 Build 0)  -->
<!DOCTYPE svg PUBLIC "-//W3C//DTD SVG 1.1//EN" "http://www.w3.org/Graphics/SVG/1.1/DTD/svg11.dtd">
<svg version="1.1" id="Layer_1" xmlns="http://www.w3.org/2000/svg" xmlns:xlink="http://www.w3.org/1999/xlink" x="0px" y="0px"
	 width="33.762px" height="32.2px" viewBox="0 0 33.762 32.2" enable-background="new 0 0 33.762 32.2" xml:space="preserve">
<g>
	<defs>
		<rect id="SVGID_1_" width="33.762" height="32.2"/>
	</defs>
	<clipPath id="SVGID_2_">
		<use xlink:href="#SVGID_1_"  overflow="visible"/>
	</clipPath>
	<path clip-path="url(#SVGID_2_)" fill="none" stroke="#FFFFFF" stroke-width="1.92" stroke-miterlimit="22.926" d="M32.802,31.24
		H0.96c0-6.637,4.061-12.325,9.834-14.715c0.637,0.465,1.325,0.854,2.058,1.164c1.277,0.54,2.632,0.813,4.029,0.813
		s2.752-0.273,4.028-0.813c0.733-0.311,1.421-0.699,2.059-1.164C28.74,18.915,32.802,24.604,32.802,31.24z"/>
	<path clip-path="url(#SVGID_2_)" fill="none" stroke="#FFFFFF" stroke-width="1.92" stroke-miterlimit="22.926" d="M25.649,9.716
		c0,3.334-1.863,6.232-4.604,7.711c-1.235,0.667-2.649,1.046-4.151,1.046c-1.503,0-2.917-0.379-4.153-1.046
		C10,15.948,8.136,13.05,8.136,9.716c0-4.836,3.92-8.756,8.757-8.756C21.729,0.96,25.649,4.88,25.649,9.716z"/>
</g>
</svg>
