<?xml version="1.0" encoding="utf-8"?>
<!-- Generator: Adobe Illustrator 15.0.0, SVG Export Plug-In . SVG Version: 6.00 Build 0)  -->
<!DOCTYPE svg PUBLIC "-//W3C//DTD SVG 1.1//EN" "http://www.w3.org/Graphics/SVG/1.1/DTD/svg11.dtd">
<svg version="1.1" id="Layer_1" xmlns="http://www.w3.org/2000/svg" xmlns:xlink="http://www.w3.org/1999/xlink" x="0px" y="0px"
	 width="837.5px" height="446.874px" viewBox="-195.314 195.312 837.5 446.874"
	 enable-background="new -195.314 195.312 837.5 446.874" xml:space="preserve">
<g>
	<g>
		<g>
			<defs>
				<rect id="SVGID_1_" x="-195.314" y="195.314" width="837.5" height="446.871"/>
			</defs>
			<clipPath id="SVGID_2_">
				<use xlink:href="#SVGID_1_"  overflow="visible"/>
			</clipPath>
			<path clip-path="url(#SVGID_2_)" fill="#FFFFFF" d="M432.811,432.813L223.436,642.186L14.061,432.813
				c-115.156-115.154-209.375-210.228-209.375-211.271c0-2.445,23.824-26.229,26.274-26.229c1.02,0,89.603,87.75,196.851,195
				c107.249,107.25,195.561,195.001,196.25,195.001s89.001-87.75,196.25-195.001c107.248-107.25,195.57-195,196.271-195
				c2.013,0,25.604,24.209,25.604,26.273C642.186,222.607,547.967,317.658,432.811,432.813"/>
		</g>
	</g>
</g>
</svg>
