<?xml version="1.0" encoding="utf-8"?>
<!-- Generator: Adobe Illustrator 15.0.0, SVG Export Plug-In . SVG Version: 6.00 Build 0)  -->
<svg version="1.2" baseProfile="tiny" id="Layer_1" xmlns="http://www.w3.org/2000/svg" xmlns:xlink="http://www.w3.org/1999/xlink"
	 x="0px" y="0px" width="87.979px" height="80px" viewBox="0 0 87.979 80" xml:space="preserve">
<g>
	<polygon fill="none" points="77.406,40 83.5,14 18.594,14 24.094,40 	"/>
	<path fill="none" d="M35,66c-2.785,0-5,2.215-5,5s2.215,5,5,5c2.785,0,5-2.215,5-5S37.785,66,35,66z"/>
	<path fill="none" d="M65,66c-2.785,0-5,2.215-5,5s2.215,5,5,5s5-2.215,5-5S67.785,66,65,66z"/>
	<path fill="#FFFFFF" d="M74,71c0-4.947-4.054-9-9-9c-4.947,0-9,4.053-9,9s4.053,9,9,9C69.946,80,74,75.947,74,71z M65,76
		c-2.785,0-5-2.215-5-5s2.215-5,5-5s5,2.215,5,5S67.785,76,65,76z"/>
	<path fill="#FFFFFF" d="M2,4h10.375l10.531,49.812C22.799,54.952,23.857,56.058,25,56h50c1.057,0.015,2.028-0.943,2.028-2
		S76.057,51.985,75,52H26.625l-1.688-8H79c0.896-0.01,1.741-0.688,1.938-1.562l6.999-30.001c0.26-1.16-0.748-2.429-1.938-2.437
		H17.75l-1.781-8.438C15.771,0.679,14.906-0.008,14,0H2C0.896,0,0,0.896,0,2S0.896,4,2,4z M83.5,14l-6.094,26H24.094l-5.5-26H83.5z"
		/>
	<path fill="#FFFFFF" d="M44,71c0-4.947-4.053-9-9-9c-4.947,0-9,4.053-9,9s4.053,9,9,9C39.947,80,44,75.947,44,71z M35,76
		c-2.785,0-5-2.215-5-5s2.215-5,5-5c2.785,0,5,2.215,5,5S37.785,76,35,76z"/>
</g>
</svg>
