<?xml version="1.0" encoding="utf-8"?>
<!-- Generator: Adobe Illustrator 15.0.0, SVG Export Plug-In . SVG Version: 6.00 Build 0)  -->
<svg version="1.2" baseProfile="tiny" id="Layer_1" xmlns="http://www.w3.org/2000/svg" xmlns:xlink="http://www.w3.org/1999/xlink"
	 x="0px" y="0px" width="1990.7px" height="3684.1px" viewBox="0 0 1990.7 3684.1" xml:space="preserve">
<g>
	<path fill="none" d="M995.3,3221c-95.5,0-172.8,77.3-172.8,172.8c0,95.4,77.3,172.8,172.8,172.8c95.4,0,172.8-77.3,172.8-172.8
		C1168.1,3298.3,1090.7,3221,995.3,3221z"/>
	<path fill="none" d="M1725.2,165.9H265.4c-54.9,0-99.5,44.7-99.5,99.5v2738.5c0,54.9,44.7,99.5,99.5,99.5h1459.8
		c54.9,0,99.5-44.7,99.5-99.5V265.4C1824.8,210.6,1780.1,165.9,1725.2,165.9z"/>
	<path fill="#FFFFFF" d="M1725.2,0H265.4C118.8,0,0,118.8,0,265.4v3153.3c0,146.6,118.8,265.4,265.4,265.4h1459.8
		c146.6,0,265.4-118.8,265.4-265.4V265.4C1990.7,118.8,1871.8,0,1725.2,0z M995.3,3566.5c-95.5,0-172.8-77.3-172.8-172.8
		c0-95.5,77.3-172.8,172.8-172.8c95.4,0,172.8,77.3,172.8,172.8C1168.1,3489.2,1090.8,3566.5,995.3,3566.5z M1824.8,3003.9
		c0,54.9-44.7,99.5-99.5,99.5H265.4c-54.9,0-99.5-44.7-99.5-99.5V265.4c0-54.9,44.7-99.5,99.5-99.5h1459.8
		c54.9,0,99.5,44.7,99.5,99.5V3003.9z"/>
</g>
</svg>
