<?xml version="1.0" encoding="utf-8"?>
<!-- Generator: Adobe Illustrator 15.0.0, SVG Export Plug-In . SVG Version: 6.00 Build 0)  -->
<svg version="1.2" baseProfile="tiny" id="Layer_1" xmlns="http://www.w3.org/2000/svg" xmlns:xlink="http://www.w3.org/1999/xlink"
	 x="0px" y="0px" width="271.2px" height="440.6px" viewBox="0 0 271.2 440.6" xml:space="preserve">
<g>
	<path fill="none" d="M135.6,68.1c-37.2,0-67.6,30.4-67.6,67.6c0,37.2,30.4,67.6,67.6,67.6c37.7,0,67.6-30.4,68.1-67.6
		C203.7,98.4,173.3,68.1,135.6,68.1z"/>
	<path fill="#FFFFFF" d="M271.2,135.6C271.2,60.7,210.5,0,135.6,0C60.7,0,0,60.7,0,135.6v0.1c0,24.5,6.9,48,18.1,67.5l117.5,237.5
		l117.5-237.5C264.4,183.6,271.2,160.1,271.2,135.6z M135.6,203.2c-37.2,0-67.6-30.4-67.6-67.6c0-37.2,30.4-67.6,67.6-67.6
		c37.7,0,68.1,30.4,68.1,67.6C203.2,172.8,173.3,203.2,135.6,203.2z"/>
</g>
</svg>
