<?xml version="1.0" encoding="utf-8"?>
<!-- Generator: Adobe Illustrator 15.0.0, SVG Export Plug-In . SVG Version: 6.00 Build 0)  -->
<!DOCTYPE svg PUBLIC "-//W3C//DTD SVG 1.1//EN" "http://www.w3.org/Graphics/SVG/1.1/DTD/svg11.dtd">
<svg version="1.1" id="Layer_1" xmlns="http://www.w3.org/2000/svg" xmlns:xlink="http://www.w3.org/1999/xlink" x="0px" y="0px"
	 width="17.96px" height="15px" viewBox="5.52 4.515 17.96 15" enable-background="new 5.52 4.515 17.96 15" xml:space="preserve">
<path fill="#FFFFFF" d="M7.953,19.051c2.806,0.873,6.11,0.499,8.542-0.997c1.746-1.061,3.554-3.117,4.364-5.113
	c0.437-1.06,0.873-3.055,0.873-3.99c0-0.624,0.063-0.686,0.748-1.435c0.437-0.436,0.811-0.873,0.936-0.997
	c0.125-0.25,0.125-0.25-0.562,0c-1.122,0.374-1.246,0.374-0.748-0.25c0.437-0.436,0.873-1.185,0.873-1.434
	c0-0.063-0.188,0-0.437,0.125s-0.748,0.312-1.122,0.437l-0.687,0.25l-0.623-0.437c-0.374-0.25-0.873-0.499-1.122-0.561
	c-0.687-0.187-1.684-0.187-2.308,0.062c-1.62,0.624-2.681,2.12-2.556,3.804l0.063,0.623l-0.624-0.062
	C11.257,8.763,9.2,7.766,7.392,6.02L6.519,5.147L6.332,5.771C5.833,7.205,6.145,8.701,7.143,9.699
	c0.499,0.561,0.374,0.624-0.499,0.312C6.332,9.886,6.083,9.823,6.02,9.886s0.25,1.31,0.499,1.746
	c0.312,0.686,1.06,1.309,1.808,1.683l0.624,0.313H8.202c-0.748,0-0.748,0-0.686,0.312c0.25,0.873,1.309,1.746,2.432,2.182
	l0.811,0.25l-0.686,0.437c-1.06,0.624-2.245,0.936-3.492,0.997c-0.561,0-1.06,0.063-1.06,0.125
	C5.459,17.991,7.08,18.739,7.953,19.051z"/>
</svg>
