<?xml version="1.0" encoding="utf-8"?>
<!-- Generator: Adobe Illustrator 15.0.0, SVG Export Plug-In . SVG Version: 6.00 Build 0)  -->
<!DOCTYPE svg PUBLIC "-//W3C//DTD SVG 1.1//EN" "http://www.w3.org/Graphics/SVG/1.1/DTD/svg11.dtd">
<svg version="1.1" id="Layer_1" xmlns="http://www.w3.org/2000/svg" xmlns:xlink="http://www.w3.org/1999/xlink" x="0px" y="0px"
	 width="48px" height="54.379px" viewBox="19.833 22.469 48 54.379" enable-background="new 19.833 22.469 48 54.379"
	 xml:space="preserve">
<line fill="none" stroke="#FFFFFF" stroke-width="2" stroke-miterlimit="10" x1="36.094" y1="45.232" x2="50.549" y2="45.232"/>
<line fill="none" stroke="#FFFFFF" stroke-width="2" stroke-miterlimit="10" x1="43.321" y1="38.005" x2="43.321" y2="52.46"/>
<g>
	<g>
		<defs>
			<rect id="SVGID_1_" x="19.833" y="22.469" width="48" height="54.379"/>
		</defs>
		<clipPath id="SVGID_2_">
			<use xlink:href="#SVGID_1_"  overflow="visible"/>
		</clipPath>
		<path clip-path="url(#SVGID_2_)" fill="none" stroke="#FFFFFF" stroke-width="4" stroke-miterlimit="10" d="M37.298,66.86
			c5.858,1.588,11.388,0.821,16.645-2.245c0.876-0.548,1.643-1.04,2.409-1.588c3.887-2.902,6.515-6.789,7.884-11.717
			c1.588-5.859,0.821-11.443-2.245-16.7C58.98,29.3,54.49,25.96,48.632,24.372c-5.859-1.588-11.389-0.821-16.646,2.19
			c-5.256,3.066-8.651,7.5-10.239,13.359c-1.587,5.859-0.876,11.389,2.19,16.59C26.95,61.822,31.44,65.271,37.298,66.86z"/>
	</g>
	<g>
		<defs>
			<rect id="SVGID_3_" x="19.833" y="22.469" width="48" height="54.379"/>
		</defs>
		<clipPath id="SVGID_4_">
			<use xlink:href="#SVGID_3_"  overflow="visible"/>
		</clipPath>
		
			<line clip-path="url(#SVGID_4_)" fill="none" stroke="#FFFFFF" stroke-width="4" stroke-miterlimit="10" x1="66.975" y1="76.168" x2="57.009" y2="63.575"/>
	</g>
</g>
</svg>
