<svg xmlns="http://www.w3.org/2000/svg" xmlns:xlink="http://www.w3.org/1999/xlink" width="232.185" height="30" viewBox="0 0 232.185 30">
  <defs>
    <clipPath id="clip-path">
      <path id="Path_90" data-name="Path 90" d="M0-66.5H232.185v-30H0Z" transform="translate(0 96.501)"/>
    </clipPath>
  </defs>
  <g id="Group_30" data-name="Group 30" transform="translate(0 96.501)">
    <g id="Group_37" data-name="Group 37" transform="translate(0 -96.501)" clip-path="url(#clip-path)">
      <g id="Group_30-2" data-name="Group 30" transform="translate(0 0.546)">
        <path id="Path_83" data-name="Path 83" d="M-.079-63.766c.98-1.081,1.908-2.056,2.77-3.087a1.942,1.942,0,0,0,.437-1.14c.026-6.744.013-13.488.03-20.232a1.628,1.628,0,0,0-.48-1.215C1.777-90.4.9-91.386-.114-92.509c.439,0,15.775.042,23.182-.022a8.5,8.5,0,0,1,6.44,2.963c2.588,2.706,3.265,9.167-1.378,12.786a12.562,12.562,0,0,1-4.156,2.192,3.157,3.157,0,0,1-.876.1c-1.966.009-3.931,0-5.923.114.682.151,1.363.305,2.045.453,2.074.45,4.154.879,6.221,1.36a3.131,3.131,0,0,1,1.256.61c3.071,2.563,6.118,5.154,9.172,7.737.136.115.367.306.59.508l-.7,0c-3.52,0-7.041.012-10.561-.014a1.686,1.686,0,0,1-.972-.36q-5.939-4.814-11.849-9.665c-.243-.2-.493-.391-.764-.606-.049.093-.1.146-.1.2-.007,2.171-.023,4.343,0,6.515a1.357,1.357,0,0,0,.376.759c.879,1.017,1.785,2.011,2.769,3.111ZM11.549-90.3v13.615c2.4,0,0,0,7.1.036a3.779,3.779,0,0,0,3.138-1.423,7.936,7.936,0,0,0,.834-1.166,9.247,9.247,0,0,0,.9-6.31,6.486,6.486,0,0,0-2.273-4.027,2.9,2.9,0,0,0-1.983-.742c-3.113-.02-6.958.018-7.709.018" transform="translate(0.114 92.532)"/>
      </g>
      <g id="Group_31" data-name="Group 31" transform="translate(133.639 0.557)">
        <path id="Path_84" data-name="Path 84" d="M-58-37.26c0-4.407.005-8.633-.014-12.859a1.221,1.221,0,0,0-.318-.709c-.9-1.036-1.819-2.049-2.812-3.158h9.056a11.363,11.363,0,0,1-1.2,1.313c-1.674,1.343-2.067,3.038-2.027,5.156.133,7.127.051,21.923.051,22.263-1.237,0-2.4.019-3.556-.019-.2-.007-19.011-22.187-19.322-22.549-.03.31-.062.493-.062.675,0,5.919-.008,11.838.014,17.757a1.638,1.638,0,0,0,.38.96c.866,1.029,1.78,2.017,2.759,3.113H-84.15c.939-1.04,1.8-2.032,2.709-2.981a1.764,1.764,0,0,0,.518-1.337c-.016-6.719,0-13.438-.03-20.156a1.944,1.944,0,0,0-.438-1.14c-.856-1.025-1.779-1.994-2.767-3.084.346-.02,7.819-.032,11.361-.053a1.214,1.214,0,0,1,1.032.51C-67.34-48.294-58.232-37.52-58-37.26" transform="translate(84.158 54.069)"/>
      </g>
      <g id="Group_32" data-name="Group 32" transform="translate(37.849 0.633)">
        <path id="Path_85" data-name="Path 85" d="M-62.563,0V8.756c-.217-.273-3.2-4.345-4.577-6.195a1.036,1.036,0,0,0-.7-.4c-3.7-.024-11.242.007-11.358.025V13.2c.2.009,5.162.018,7.425.04a1.127,1.127,0,0,0,.985-.465c.873-1.07,1.779-2.112,2.773-3.283v9.6c-.223-.238-2.065-2.392-2.849-3.284a.98.98,0,0,0-.6-.36c-2.559-.025-5.118-.016-7.73-.016V26.49c.195.012,7.761.029,11.327.049a1.115,1.115,0,0,0,1.014-.528c1.453-1.989,2.928-3.963,4.5-6.084V28.69h-28.4c.134-.182,2.024-2.294,2.829-3.229a1.306,1.306,0,0,0,.3-.781q.024-10.354,0-20.708a1.405,1.405,0,0,0-.342-.833C-88.856,2.1-89.789,1.1-90.786,0Z" transform="translate(90.786)"/>
      </g>
      <g id="Group_33" data-name="Group 33" transform="translate(101.642 0.595)">
        <path id="Path_86" data-name="Path 86" d="M-.012,0H28.23V8.726a5.192,5.192,0,0,1-.364-.4c-1.389-1.9-2.766-3.808-4.174-5.693a1.118,1.118,0,0,0-.749-.435c-3.657-.028-11.193,0-11.343.015V13.231c.2.014,5.169.059,7.455.024a1.4,1.4,0,0,0,.91-.42c.934-1.031,1.815-2.108,2.8-3.274v9.61a18.088,18.088,0,0,1-1.617-1.94c-.9-1.457-2.11-1.8-3.825-1.79-5.724.038-3.785.038-5.724.038V26.566c.242,0,7.769-.009,11.289.011a1.17,1.17,0,0,0,1.076-.544c1.3-1.8,2.628-3.569,3.949-5.349.147-.2.306-.387.547-.691v8.744H-.018a12.732,12.732,0,0,1,1.284-1.4C2.921,26,3.3,24.314,3.249,22.225c-.141-5.917-.057-11.839-.038-17.759a2.015,2.015,0,0,0-.593-1.58C1.737,2,.93,1.043-.012,0" transform="translate(0.018)"/>
      </g>
      <g id="Group_34" data-name="Group 34" transform="translate(69.556 0.007)">
        <path id="Path_87" data-name="Path 87" d="M-62.721-.112v8.7c-.606-.707-1.116-1.3-1.628-1.9a13.177,13.177,0,0,0-8.584-4.8,14.328,14.328,0,0,0-3.887.053,5.975,5.975,0,0,0-4.827,5.844V21.645a6.213,6.213,0,0,0,5.038,6.074,11.6,11.6,0,0,0,5.879-.462.817.817,0,0,0,.438-.611q.043-4.458,0-8.916a1.441,1.441,0,0,0-.356-.834c-.884-1.036-1.8-2.042-2.792-3.15h11.462c.014.223.034,7.2.053,10.468a1.234,1.234,0,0,1-.5,1.044A18.208,18.208,0,0,1-74.3,29.669a18.538,18.538,0,0,1-7.534-1.1,14.783,14.783,0,0,1-9.084-15.581A14.948,14.948,0,0,1-78.695.15,19.833,19.833,0,0,1-66.282,1.861.982.982,0,0,0-65.017,1.7c.708-.6,1.461-1.159,2.3-1.813" transform="translate(91.016 0.162)"/>
      </g>
      <g id="Group_35" data-name="Group 35" transform="translate(196.678 0.602)">
        <path id="Path_88" data-name="Path 88" d="M-56.652-63.692H-71.336a4.583,4.583,0,0,1,.3-.44c.8-.907,1.631-1.792,2.4-2.723a1.662,1.662,0,0,0,.361-.966q.044-3.633,0-7.266a1.844,1.844,0,0,0-.325-.995q-4.425-6.144-8.9-12.256A5.965,5.965,0,0,0-78.5-89.346c-1.19-1-2.4-1.971-3.709-3.046h14.3c-.111.154-.183.26-.262.361a2.587,2.587,0,0,0-.093,3.5c2.071,2.983,6.5,9.347,6.686,9.595.16-.188,5.506-7.177,8.068-10.509a1.087,1.087,0,0,0,.2-1.184c-.22-.568-.36-1.168-.549-1.8H-46.7c-.989.713-1.837,1.309-2.665,1.93a4.339,4.339,0,0,0-.84.791q-4.666,6.051-9.3,12.13a1.984,1.984,0,0,0-.376,1.106q-.046,4.319,0,8.638a1.627,1.627,0,0,0,.373.957c.887,1.04,1.822,2.039,2.856,3.182" transform="translate(82.209 92.425)"/>
      </g>
      <g id="Group_36" data-name="Group 36" transform="translate(166.355 0)">
        <path id="Path_89" data-name="Path 89" d="M-62.547-65.995c-.819-.68-1.558-1.257-2.251-1.884a.8.8,0,0,0-1.064-.107,18.509,18.509,0,0,1-16.151.685,14.5,14.5,0,0,1-8.594-15.571A14.941,14.941,0,0,1-78.031-95.52,19.558,19.558,0,0,1-65.966-93.7a.859.859,0,0,0,1.095-.124,29.011,29.011,0,0,1,2.345-1.709v8.486c-.238-.274-.416-.456-.569-.657a15.531,15.531,0,0,0-6.887-5.349,12.59,12.59,0,0,0-6.676-.6,6.084,6.084,0,0,0-4.728,5.743q0,6.994,0,13.988a6.142,6.142,0,0,0,5.281,6.054,13.011,13.011,0,0,0,11.5-4.228c.717-.732,1.329-1.567,2.064-2.443Z" transform="translate(90.763 95.766)"/>
      </g>
    </g>
  </g>
</svg>
