<svg xmlns="http://www.w3.org/2000/svg" xmlns:xlink="http://www.w3.org/1999/xlink" width="204.355" height="26.404" viewBox="0 0 204.355 26.404">
  <defs>
    <clipPath id="clip-path">
      <path id="Path_90" data-name="Path 90" d="M0-70.1H204.355V-96.5H0Z" transform="translate(0 96.501)" fill="#fff"/>
    </clipPath>
  </defs>
  <g id="Group_30" data-name="Group 30" transform="translate(0 96.501)">
    <g id="Group_37" data-name="Group 37" transform="translate(0 -96.501)" clip-path="url(#clip-path)">
      <g id="Group_30-2" data-name="Group 30" transform="translate(0 0.48)">
        <path id="Path_83" data-name="Path 83" d="M-.083-67.214c.863-.952,1.679-1.81,2.438-2.717a1.709,1.709,0,0,0,.385-1c.023-5.936.011-11.871.026-17.807a1.433,1.433,0,0,0-.422-1.069c-.794-.844-1.562-1.713-2.458-2.7.387,0,13.884.037,20.4-.02a7.485,7.485,0,0,1,5.668,2.608A7.967,7.967,0,0,1,24.744-78.67a11.056,11.056,0,0,1-3.657,1.93,2.779,2.779,0,0,1-.771.092c-1.73.008-3.46,0-5.213.1.6.133,1.2.269,1.8.4,1.826.4,3.656.773,5.476,1.2a2.756,2.756,0,0,1,1.106.537c2.7,2.255,5.385,4.536,8.073,6.81.12.1.323.269.52.447l-.616,0c-3.1,0-6.2.01-9.3-.012a1.484,1.484,0,0,1-.856-.317Q16.081-71.728,10.88-76c-.214-.175-.434-.344-.673-.534-.043.082-.089.129-.09.176-.006,1.911-.02,3.823,0,5.734a1.2,1.2,0,0,0,.331.668c.774.9,1.571,1.77,2.437,2.738ZM10.151-90.569v11.983c2.113,0,0,0,6.246.032a3.326,3.326,0,0,0,2.762-1.253,6.985,6.985,0,0,0,.734-1.026,8.138,8.138,0,0,0,.788-5.553,5.709,5.709,0,0,0-2-3.544,2.554,2.554,0,0,0-1.745-.653c-2.739-.017-6.124.016-6.785.016" transform="translate(0.114 92.532)" fill="#fff"/>
      </g>
      <g id="Group_31" data-name="Group 31" transform="translate(117.621 0.49)">
        <path id="Path_84" data-name="Path 84" d="M-61.131-39.275c0-3.879,0-7.6-.012-11.318a1.075,1.075,0,0,0-.28-.624c-.789-.911-1.6-1.8-2.475-2.78h7.971a10,10,0,0,1-1.053,1.155A5.1,5.1,0,0,0-58.764-48.3c.117,6.273.045,19.3.045,19.594-1.088,0-2.11.017-3.129-.016-.175-.006-16.733-19.528-17.006-19.846-.026.273-.055.434-.055.594,0,5.209-.007,10.419.012,15.628a1.442,1.442,0,0,0,.334.845c.762.905,1.566,1.775,2.428,2.739h-8.015c.827-.916,1.586-1.788,2.384-2.623a1.553,1.553,0,0,0,.456-1.177c-.015-5.914,0-11.827-.026-17.74a1.711,1.711,0,0,0-.386-1c-.754-.9-1.566-1.755-2.435-2.714.3-.017,6.882-.028,10-.047a1.068,1.068,0,0,1,.908.449C-69.356-48.986-61.34-39.5-61.131-39.275" transform="translate(84.158 54.069)" fill="#fff"/>
      </g>
      <g id="Group_32" data-name="Group 32" transform="translate(33.312 0.557)">
        <path id="Path_85" data-name="Path 85" d="M-65.946,0V7.706c-.191-.24-2.814-3.824-4.028-5.452a.912.912,0,0,0-.614-.352c-3.259-.021-9.895.006-10,.022v9.7c.177.008,4.543.016,6.535.036a.992.992,0,0,0,.867-.409c.768-.942,1.566-1.859,2.441-2.89v8.453c-.2-.209-1.817-2.105-2.508-2.891a.863.863,0,0,0-.528-.317c-2.252-.022-4.5-.014-6.8-.014v9.725c.172.01,6.831.025,9.969.044a.981.981,0,0,0,.893-.465c1.279-1.751,2.577-3.488,3.962-5.355v7.713H-90.751c.118-.16,1.781-2.019,2.49-2.842A1.149,1.149,0,0,0-88,21.722q.021-9.113,0-18.226a1.237,1.237,0,0,0-.3-.733C-89.087,1.852-89.908.969-90.786,0Z" transform="translate(90.786)" fill="#fff"/>
      </g>
      <g id="Group_33" data-name="Group 33" transform="translate(89.46 0.523)">
        <path id="Path_86" data-name="Path 86" d="M-.013,0H24.844V7.68a4.569,4.569,0,0,1-.32-.349C23.3,5.659,22.09,3.979,20.85,2.32a.984.984,0,0,0-.659-.383c-3.219-.024-9.851,0-9.983.013v9.695c.177.013,4.55.052,6.561.021a1.23,1.23,0,0,0,.8-.37c.822-.907,1.6-1.856,2.468-2.882v8.458a15.92,15.92,0,0,1-1.424-1.707,3.4,3.4,0,0,0-3.366-1.575c-5.038.033-3.331.033-5.038.033v9.759c.213,0,6.838-.008,9.936.009a1.03,1.03,0,0,0,.947-.479c1.143-1.58,2.313-3.141,3.476-4.708.129-.174.269-.341.481-.609v7.7H-.018a11.206,11.206,0,0,1,1.13-1.236,5.036,5.036,0,0,0,1.746-4.5c-.124-5.207-.05-10.42-.034-15.63A1.774,1.774,0,0,0,2.3,2.541C1.527,1.762.816.918-.013,0" transform="translate(0.018)" fill="#fff"/>
      </g>
      <g id="Group_34" data-name="Group 34" transform="translate(61.219 0.006)">
        <path id="Path_87" data-name="Path 87" d="M-66.112-.118v7.66l-1.433-1.673A11.6,11.6,0,0,0-75.1,1.648a12.611,12.611,0,0,0-3.421.047A5.259,5.259,0,0,0-82.77,6.838V19.031a5.468,5.468,0,0,0,4.434,5.346,10.206,10.206,0,0,0,5.174-.407.719.719,0,0,0,.386-.537q.038-3.923,0-7.847a1.268,1.268,0,0,0-.313-.734c-.778-.912-1.587-1.8-2.457-2.773h10.088c.013.2.03,6.336.047,9.213a1.086,1.086,0,0,1-.436.919A16.026,16.026,0,0,1-76.3,26.094a16.316,16.316,0,0,1-6.631-.97,13.011,13.011,0,0,1-8-13.713A13.156,13.156,0,0,1-80.172.112,17.456,17.456,0,0,1-69.246,1.619a.864.864,0,0,0,1.113-.14c.624-.532,1.286-1.02,2.021-1.6" transform="translate(91.016 0.162)" fill="#fff"/>
      </g>
      <g id="Group_35" data-name="Group 35" transform="translate(173.104 0.529)">
        <path id="Path_88" data-name="Path 88" d="M-59.715-67.136H-72.64a4.033,4.033,0,0,1,.267-.387c.706-.8,1.436-1.577,2.116-2.4a1.463,1.463,0,0,0,.317-.85q.039-3.2,0-6.4a1.623,1.623,0,0,0-.286-.876q-3.895-5.408-7.829-10.787a5.25,5.25,0,0,0-.891-.888c-1.047-.877-2.11-1.735-3.265-2.681h12.588c-.1.136-.161.229-.231.318a2.277,2.277,0,0,0-.082,3.084c1.823,2.625,5.724,8.227,5.884,8.445.141-.165,4.846-6.316,7.1-9.249a.957.957,0,0,0,.175-1.042c-.194-.5-.317-1.028-.483-1.584h6.3c-.871.628-1.617,1.152-2.345,1.7a3.819,3.819,0,0,0-.74.7q-4.107,5.326-8.183,10.676a1.746,1.746,0,0,0-.331.974q-.04,3.8,0,7.6a1.432,1.432,0,0,0,.328.842c.781.915,1.6,1.795,2.514,2.8" transform="translate(82.209 92.425)" fill="#fff"/>
      </g>
      <g id="Group_36" data-name="Group 36" transform="translate(146.416 0)">
        <path id="Path_89" data-name="Path 89" d="M-65.929-69.563c-.721-.6-1.371-1.106-1.981-1.658a.7.7,0,0,0-.937-.094,16.29,16.29,0,0,1-14.215.6,12.762,12.762,0,0,1-7.564-13.7A13.15,13.15,0,0,1-79.557-95.55a17.214,17.214,0,0,1,10.619,1.6.756.756,0,0,0,.964-.109,25.534,25.534,0,0,1,2.064-1.5v7.469c-.21-.241-.366-.4-.5-.578a13.669,13.669,0,0,0-6.062-4.708,11.081,11.081,0,0,0-5.876-.528,5.355,5.355,0,0,0-4.161,5.055q0,6.156,0,12.312a5.406,5.406,0,0,0,4.648,5.329,11.452,11.452,0,0,0,10.118-3.721c.631-.645,1.17-1.379,1.817-2.15Z" transform="translate(90.763 95.766)" fill="#fff"/>
      </g>
    </g>
  </g>
</svg>
