<svg xmlns="http://www.w3.org/2000/svg" width="454.629" height="128.035" viewBox="0 0 454.629 128.035">
  <g id="Group_20" data-name="Group 20" transform="translate(-801 350)">
    <path id="Path_64" data-name="Path 64" d="M93.019,74.945l-4.854,10.8h-.889l-4.828-10.8H77.776V92.73H80.8V79.442l-.126-1.27h.151l4.626,10.366h4.573l4.624-10.366H94.8l-.129,1.27V92.73h3.025V74.945Z" transform="translate(837.111 -315.203)" fill="#fff"/>
    <path id="Path_65" data-name="Path 65" d="M99.346,77.792h2.82l1.955,7.519H97.389Zm-2.337-2.847L92.385,92.73h3.1l1.192-4.573h8.156l1.193,4.573h3.1L104.5,74.945Z" transform="translate(843.894 -315.203)" fill="#fff"/>
    <path id="Path_66" data-name="Path 66" d="M104.877,92.73V74.946h7.976a8.02,8.02,0,0,1,3.583.75,5.432,5.432,0,0,1,3.15,5.017,5.1,5.1,0,0,1-1.182,3.393,6.5,6.5,0,0,1-3.189,2.019l4.323,6.605h-3.481l-4.017-6.225H107.9V92.73Zm7.925-9.07a4.133,4.133,0,0,0,2.746-.8,2.679,2.679,0,0,0,.942-2.148,2.647,2.647,0,0,0-.942-2.12,4.125,4.125,0,0,0-2.746-.8h-4.9V83.66Z" transform="translate(849.694 -315.203)" fill="#fff"/>
    <path id="Path_67" data-name="Path 67" d="M116.5,92.73V74.945h3.022v7.368h3l5.209-7.368h3.481l-6.02,8.588,6.351,9.2h-3.608l-5.283-7.57h-3.126v7.57Z" transform="translate(855.092 -315.203)" fill="#fff"/>
    <path id="Path_68" data-name="Path 68" d="M127.641,92.73V74.945h3.022v7.368h8.718V74.945h3.049V92.73h-3.049V85.16h-8.718v7.57Z" transform="translate(860.263 -315.203)" fill="#fff"/>
    <path id="Path_69" data-name="Path 69" d="M138.781,92.729l4.624-17.784H150.9l4.626,17.784h-3.1l-1.192-4.573h-8.156l-1.193,4.573Zm5-7.418h6.733l-1.956-7.521h-2.82Z" transform="translate(865.436 -315.203)" fill="#fff"/>
    <path id="Path_70" data-name="Path 70" d="M151.273,92.73V74.945h4.673l4.828,10.8h.89l4.853-10.8h4.677V92.73h-3.027V79.442l.129-1.27h-.152l-4.624,10.366h-4.573l-4.624-10.366h-.151l.124,1.27V92.73Z" transform="translate(871.236 -315.203)" fill="#fff"/>
    <path id="Path_71" data-name="Path 71" d="M175.307,92.73V77.791h-5.92V74.945h14.863v2.847h-5.92V92.73Z" transform="translate(879.646 -315.203)" fill="#fff"/>
    <path id="Path_72" data-name="Path 72" d="M189.5,93.4a9.691,9.691,0,0,1-4.864-1.231,9.049,9.049,0,0,1-3.418-3.38,9.838,9.838,0,0,1,0-9.579,9.045,9.045,0,0,1,3.418-3.378,10.229,10.229,0,0,1,9.732,0,9.055,9.055,0,0,1,3.418,3.378,9.838,9.838,0,0,1,0,9.579,9.059,9.059,0,0,1-3.418,3.38A9.694,9.694,0,0,1,189.5,93.4m0-2.845a6.406,6.406,0,0,0,3.277-.839,5.911,5.911,0,0,0,2.262-2.312,7.537,7.537,0,0,0,0-6.809,5.931,5.931,0,0,0-2.262-2.312,6.83,6.83,0,0,0-6.554,0,5.943,5.943,0,0,0-2.259,2.312,7.538,7.538,0,0,0,0,6.809,5.924,5.924,0,0,0,2.259,2.312,6.422,6.422,0,0,0,3.277.839" transform="translate(884.56 -315.364)" fill="#fff"/>
    <path id="Path_73" data-name="Path 73" d="M197.49,92.73l-3.813-17.785h3.178l2.973,14.737h.457l3-14.737h4.369l2.975,14.737h.457l3-14.737h3.151L213.42,92.73h-4.8L205.67,78.3h-.432l-2.92,14.431Z" transform="translate(890.924 -315.203)" fill="#fff"/>
    <path id="Path_74" data-name="Path 74" d="M211.029,92.73V74.945h4.116l7.875,13.8h.152l-.152-1.22V74.945h3.049V92.73h-4.115l-7.876-13.8h-.151l.124,1.218V92.7Z" transform="translate(898.98 -315.203)" fill="#fff"/>
    <path id="Path_75" data-name="Path 75" d="M230.363,93.4a8.357,8.357,0,0,1-3.864-.826,6.98,6.98,0,0,1-2.539-2.147,7.643,7.643,0,0,1-1.27-2.871h3.1a4.086,4.086,0,0,0,1.51,2.16,4.9,4.9,0,0,0,3.063.889,6.288,6.288,0,0,0,2.2-.329,2.685,2.685,0,0,0,1.284-.9,2.194,2.194,0,0,0,.406-1.309,1.665,1.665,0,0,0-.571-1.3,4.465,4.465,0,0,0-1.436-.826c-.574-.211-1.356-.452-2.336-.723a28.41,28.41,0,0,1-3.356-1.081,5.865,5.865,0,0,1-2.185-1.549,3.963,3.963,0,0,1-.915-2.731,4.7,4.7,0,0,1,.8-2.617,5.486,5.486,0,0,1,2.3-1.931,8.039,8.039,0,0,1,3.481-.712,8.2,8.2,0,0,1,3.621.737,6.191,6.191,0,0,1,2.362,1.907,6.434,6.434,0,0,1,1.133,2.565h-3.1a3.068,3.068,0,0,0-1.284-1.715,4.71,4.71,0,0,0-2.732-.7,4.934,4.934,0,0,0-1.9.329,2.7,2.7,0,0,0-1.182.877,2.015,2.015,0,0,0-.4,1.207,1.635,1.635,0,0,0,.561,1.27,4.248,4.248,0,0,0,1.422.826q.863.319,2.337.7,2.058.586,3.355,1.106a5.755,5.755,0,0,1,2.21,1.564,4.007,4.007,0,0,1,.915,2.743,4.713,4.713,0,0,1-.826,2.694,5.751,5.751,0,0,1-2.4,1.956,8.829,8.829,0,0,1-3.76.737" transform="translate(904.394 -315.364)" fill="#fff"/>
    <path id="Path_76" data-name="Path 76" d="M37.744,78.018A37.593,37.593,0,0,1,18.556,73.01a35.928,35.928,0,0,1-13.6-13.917A40.606,40.606,0,0,1,0,39.009,40.618,40.618,0,0,1,4.954,18.925a35.948,35.948,0,0,1,13.6-13.917A37.592,37.592,0,0,1,37.744,0,37.85,37.85,0,0,1,54.98,3.743,34.1,34.1,0,0,1,67,13.495a42.248,42.248,0,0,1,6.8,13.073h-7.38A30.966,30.966,0,0,0,56.087,12.7q-7.272-5.638-18.343-5.64a30.2,30.2,0,0,0-15.5,4.059A28.821,28.821,0,0,0,11.334,22.4,34.023,34.023,0,0,0,7.38,39.009a34.011,34.011,0,0,0,3.954,16.605A28.791,28.791,0,0,0,22.246,66.895a30.187,30.187,0,0,0,15.5,4.059q11.386,0,18.765-6.115A33.2,33.2,0,0,0,66.946,49.868h7.38a45.766,45.766,0,0,1-7.062,13.864,35.817,35.817,0,0,1-12.23,10.332,36.483,36.483,0,0,1-17.29,3.954" transform="translate(801 -350)" fill="#fff"/>
    <path id="Path_77" data-name="Path 77" d="M55.8,75.241V1.44h7.38v33h42.172v-33h7.38v73.8h-7.38V41.5H63.179V75.241Z" transform="translate(826.907 -349.331)" fill="#fff"/>
    <path id="Path_78" data-name="Path 78" d="M99.717,75.241l19.19-73.8h27.2l19.187,73.8H157.81L151.59,51.73H113.424L107.1,75.241Zm15.394-30.575H149.9L140.413,8.5H124.6Z" transform="translate(847.298 -349.331)" fill="#fff"/>
    <path id="Path_79" data-name="Path 79" d="M166.383,75.241V8.5h-26.04V1.44H199.7V8.5H173.763V75.241Z" transform="translate(866.161 -349.331)" fill="#fff"/>
    <path id="Path_80" data-name="Path 80" d="M186.278,75.241V1.44h50.29V8.5h-42.91V34.439h35V41.5h-35V68.177h42.91v7.064Z" transform="translate(887.489 -349.331)" fill="#fff"/>
    <path id="Path_81" data-name="Path 81" d="M224.716,75.241,243.9,1.44h27.2l19.188,73.8h-7.486l-6.22-23.511H238.423L232.1,75.241ZM240.11,44.666H274.9L265.412,8.5H249.6Z" transform="translate(905.335 -349.331)" fill="#fff"/>
    <path id="Path_82" data-name="Path 82" d="M300.063,77.349a29.967,29.967,0,0,1-14.918-3.637,24.8,24.8,0,0,1-10.016-10.385A33.38,33.38,0,0,1,271.6,47.618V1.44h7.38V47.618q0,10.651,5.744,16.658t15.341,6.009q9.7,0,15.393-6.009t5.692-16.658V1.44h7.38V47.618A33.38,33.38,0,0,1,325,63.327a24.918,24.918,0,0,1-9.962,10.385,29.9,29.9,0,0,1-14.971,3.637" transform="translate(927.102 -349.331)" fill="#fff"/>
  </g>
</svg>
