<svg xmlns="http://www.w3.org/2000/svg" width="710.163" height="200" viewBox="0 0 710.163 200">
  <g id="Group_20" data-name="Group 20" transform="translate(-801 350)">
    <path id="Path_64" data-name="Path 64" d="M101.587,74.945,94,91.814H92.616L85.074,74.945h-7.3v27.782H82.5V81.97l-.2-1.983h.236l7.226,16.192H96.9l7.223-16.192h.238l-.2,1.983v20.758h4.726V74.945Z" transform="translate(901.123 -253.521)" fill="#050605"/>
    <path id="Path_65" data-name="Path 65" d="M103.259,79.392h4.405l3.054,11.745H100.2Zm-3.651-4.447-7.223,27.782h4.842l1.862-7.143h12.74l1.864,7.143h4.842l-7.223-27.782Z" transform="translate(919.93 -253.521)" fill="#050605"/>
    <path id="Path_66" data-name="Path 66" d="M104.877,102.726V74.946h12.459a12.527,12.527,0,0,1,5.6,1.171,8.486,8.486,0,0,1,4.92,7.836,7.968,7.968,0,0,1-1.846,5.3,10.146,10.146,0,0,1-4.982,3.154l6.752,10.318h-5.437L116.067,93H109.6v9.723Zm12.379-14.168a6.456,6.456,0,0,0,4.289-1.249,4.185,4.185,0,0,0,1.471-3.356,4.135,4.135,0,0,0-1.471-3.312,6.444,6.444,0,0,0-4.289-1.251H109.6v9.168Z" transform="translate(936.012 -253.519)" fill="#050605"/>
    <path id="Path_67" data-name="Path 67" d="M116.5,102.727V74.945h4.721v11.51h4.682l8.136-11.51h5.437l-9.4,13.415L140,102.727h-5.636L126.107,90.9h-4.883v11.826Z" transform="translate(950.977 -253.521)" fill="#050605"/>
    <path id="Path_68" data-name="Path 68" d="M127.641,102.727V74.945h4.721v11.51H145.98V74.945h4.762v27.782H145.98V90.9H132.362v11.826Z" transform="translate(965.316 -253.521)" fill="#050605"/>
    <path id="Path_69" data-name="Path 69" d="M138.781,102.725,146,74.945h11.7l7.226,27.78H160.09l-1.862-7.143h-12.74l-1.864,7.143ZM146.6,91.137h10.517L154.06,79.389h-4.405Z" transform="translate(979.658 -253.521)" fill="#050605"/>
    <path id="Path_70" data-name="Path 70" d="M151.273,102.727V74.945h7.3l7.541,16.869H167.5l7.58-16.869h7.306v27.782h-4.728V81.969l.2-1.983h-.238L170.4,96.178h-7.143l-7.223-16.192H155.8l.194,1.983v20.758Z" transform="translate(995.74 -253.521)" fill="#050605"/>
    <path id="Path_71" data-name="Path 71" d="M178.634,102.727V79.391h-9.248V74.945H192.6v4.447h-9.248v23.335Z" transform="translate(1019.057 -253.521)" fill="#050605"/>
    <path id="Path_72" data-name="Path 72" d="M194.852,103.966a15.137,15.137,0,0,1-7.6-1.924,14.135,14.135,0,0,1-5.339-5.279,15.368,15.368,0,0,1,0-14.964,14.129,14.129,0,0,1,5.339-5.277,15.978,15.978,0,0,1,15.2,0,14.144,14.144,0,0,1,5.339,5.277,15.368,15.368,0,0,1,0,14.964,14.15,14.15,0,0,1-5.339,5.279,15.142,15.142,0,0,1-7.6,1.924m0-4.444a10.007,10.007,0,0,0,5.119-1.311,9.233,9.233,0,0,0,3.534-3.612,11.774,11.774,0,0,0,0-10.636,9.264,9.264,0,0,0-3.534-3.612,10.669,10.669,0,0,0-10.238,0,9.284,9.284,0,0,0-3.529,3.612,11.774,11.774,0,0,0,0,10.636,9.253,9.253,0,0,0,3.529,3.612,10.031,10.031,0,0,0,5.119,1.311" transform="translate(1032.683 -253.966)" fill="#050605"/>
    <path id="Path_73" data-name="Path 73" d="M199.633,102.727l-5.956-27.782h4.964l4.643,23.02H204l4.682-23.02h6.825l4.648,23.02h.714l4.682-23.02h4.922l-5.954,27.782h-7.5l-4.607-22.542h-.675l-4.561,22.542Z" transform="translate(1050.328 -253.521)" fill="#050605"/>
    <path id="Path_74" data-name="Path 74" d="M211.029,102.727V74.945h6.43L229.76,96.5H230l-.238-1.905V74.945h4.762v27.782H228.1l-12.3-21.549h-.236l.194,1.9v19.6Z" transform="translate(1072.665 -253.521)" fill="#050605"/>
    <path id="Path_75" data-name="Path 75" d="M234.676,103.967a13.054,13.054,0,0,1-6.036-1.29,10.9,10.9,0,0,1-3.966-3.353,11.939,11.939,0,0,1-1.983-4.485h4.842a6.382,6.382,0,0,0,2.358,3.374,7.653,7.653,0,0,0,4.785,1.388,9.822,9.822,0,0,0,3.431-.515,4.194,4.194,0,0,0,2.006-1.409,3.427,3.427,0,0,0,.634-2.045,2.6,2.6,0,0,0-.892-2.024,6.976,6.976,0,0,0-2.244-1.29c-.9-.329-2.118-.707-3.648-1.13a44.38,44.38,0,0,1-5.243-1.688,9.161,9.161,0,0,1-3.413-2.42,6.19,6.19,0,0,1-1.43-4.266,7.339,7.339,0,0,1,1.251-4.087,8.57,8.57,0,0,1,3.591-3.017,12.558,12.558,0,0,1,5.437-1.112,12.8,12.8,0,0,1,5.657,1.151,9.671,9.671,0,0,1,3.69,2.978,10.05,10.05,0,0,1,1.77,4.007h-4.842a4.792,4.792,0,0,0-2.006-2.678,7.357,7.357,0,0,0-4.268-1.091,7.708,7.708,0,0,0-2.974.515,4.222,4.222,0,0,0-1.846,1.37,3.147,3.147,0,0,0-.618,1.885,2.555,2.555,0,0,0,.876,1.983,6.636,6.636,0,0,0,2.221,1.29q1.348.5,3.651,1.091,3.215.916,5.24,1.727a8.99,8.99,0,0,1,3.452,2.443,6.259,6.259,0,0,1,1.43,4.284,7.363,7.363,0,0,1-1.29,4.209,8.984,8.984,0,0,1-3.749,3.056,13.792,13.792,0,0,1-5.874,1.151" transform="translate(1087.677 -253.967)" fill="#050605"/>
    <path id="Path_76" data-name="Path 76" d="M58.958,121.869a58.722,58.722,0,0,1-29.973-7.823A56.123,56.123,0,0,1,7.738,92.308,63.429,63.429,0,0,1,0,60.935,63.448,63.448,0,0,1,7.738,29.562,56.154,56.154,0,0,1,28.985,7.823,58.722,58.722,0,0,1,58.958,0Q74.274,0,85.883,5.846A53.27,53.27,0,0,1,104.657,21.08,66,66,0,0,1,115.282,41.5H103.754A48.371,48.371,0,0,0,87.612,19.845q-11.36-8.807-28.653-8.811a47.177,47.177,0,0,0-24.209,6.34A45.02,45.02,0,0,0,17.7,35q-6.176,11.285-6.176,25.938T17.7,86.873a44.974,44.974,0,0,0,17.045,17.622,47.154,47.154,0,0,0,24.209,6.34q17.786,0,29.312-9.552a51.857,51.857,0,0,0,16.3-23.386H116.1a71.49,71.49,0,0,1-11.032,21.656,55.949,55.949,0,0,1-19.1,16.139q-11.7,6.176-27.009,6.176" transform="translate(801 -350)" fill="#050605"/>
    <path id="Path_77" data-name="Path 77" d="M55.8,116.722V1.44H67.327V52.987H133.2V1.44H144.73V116.722H133.2v-52.7H67.327v52.7Z" transform="translate(872.832 -348.146)" fill="#050605"/>
    <path id="Path_78" data-name="Path 78" d="M99.717,116.722,129.693,1.44h42.49l29.971,115.282H190.462L180.746,80H121.129l-9.884,36.725Zm24.047-47.76h54.347L163.287,12.474h-24.7Z" transform="translate(929.369 -348.146)" fill="#050605"/>
    <path id="Path_79" data-name="Path 79" d="M181.019,116.722V12.474H140.343V1.44H233.06V12.474H192.547V116.722Z" transform="translate(981.669 -348.146)" fill="#050605"/>
    <path id="Path_80" data-name="Path 80" d="M186.278,116.722V1.44h78.556V12.474H197.806V52.987h54.674V64.021H197.806v41.666h67.028v11.034Z" transform="translate(1040.803 -348.146)" fill="#050605"/>
    <path id="Path_81" data-name="Path 81" d="M224.716,116.722,254.689,1.44h42.49l29.973,115.282H315.459L305.743,80H246.128l-9.881,36.725Zm24.047-47.76h54.345L288.286,12.474h-24.7Z" transform="translate(1090.285 -348.146)" fill="#050605"/>
    <path id="Path_82" data-name="Path 82" d="M316.063,120.015a46.811,46.811,0,0,1-23.3-5.682,38.746,38.746,0,0,1-15.645-16.222q-5.521-10.537-5.517-24.539V1.44h11.528V73.573q0,16.637,8.973,26.021t23.964,9.387q15.148,0,24.044-9.387T349,73.573V1.44h11.528V73.573q0,14-5.517,24.539a38.924,38.924,0,0,1-15.561,16.222q-10.049,5.682-23.386,5.682" transform="translate(1150.636 -348.146)" fill="#050605"/>
  </g>
</svg>
