<svg xmlns="http://www.w3.org/2000/svg" xmlns:xlink="http://www.w3.org/1999/xlink" width="183.734" height="29.452" viewBox="0 0 183.734 29.452">
  <defs>
    <clipPath id="clip-path">
      <rect id="Rectangle_384" data-name="Rectangle 384" width="183.734" height="29.452"/>
    </clipPath>
  </defs>
  <g id="Group_8039" data-name="Group 8039" transform="translate(21.274 -16)">
    <g id="Group_8038" data-name="Group 8038" transform="translate(-21.274 16)" clip-path="url(#clip-path)">
      <path id="Path_7970" data-name="Path 7970" d="M217.83,22.206l-1.589-2.739h-1.183v2.739H213.5V14.318h3.156a2.569,2.569,0,0,1,1.1,4.914l1.746,2.975Zm-2.772-6.434V18.1h1.6a1.131,1.131,0,0,0,1.071-1.171,1.12,1.12,0,0,0-1.071-1.16Z" transform="translate(-70.592 -4.734)"/>
      <path id="Path_7971" data-name="Path 7971" d="M224.064,21.022a1.435,1.435,0,0,0,1.589,1.059,1.494,1.494,0,0,0,1.26-.563l1.174.673a2.8,2.8,0,0,1-2.457,1.2,3.025,3.025,0,0,1-2.242-.841,3.1,3.1,0,0,1-.011-4.246,2.844,2.844,0,0,1,2.142-.855,2.658,2.658,0,0,1,2.038.855,2.959,2.959,0,0,1,.812,2.116,3.8,3.8,0,0,1-.058.6Zm2.849-1.127a1.36,1.36,0,0,0-1.4-1.137,1.406,1.406,0,0,0-1.473,1.138Z" transform="translate(-73.581 -5.771)"/>
      <path id="Path_7972" data-name="Path 7972" d="M236.617,17.606h1.452v5.633h-1.452v-.665a2.209,2.209,0,0,1-1.837.823,2.554,2.554,0,0,1-1.937-.857,3.179,3.179,0,0,1,0-4.224,2.571,2.571,0,0,1,1.937-.87,2.208,2.208,0,0,1,1.837.824Zm-1.566,4.406a1.511,1.511,0,0,0,1.114-.44,1.553,1.553,0,0,0,.452-1.149,1.51,1.51,0,0,0-.452-1.138,1.606,1.606,0,0,0-2.23,0,1.546,1.546,0,0,0-.44,1.138,1.588,1.588,0,0,0,.44,1.15,1.512,1.512,0,0,0,1.117.44" transform="translate(-76.721 -5.767)"/>
      <rect id="Rectangle_383" data-name="Rectangle 383" width="1.453" height="8.225" transform="translate(162.48 9.247)"/>
      <path id="Path_7973" data-name="Path 7973" d="M249.593,18.3h-1.272v2.343c0,.608.438.62,1.272.576V22.54c-1.995.226-2.726-.349-2.726-1.894V18.3h-.981v-1.4h.981V15.768l1.454-.438v1.576h1.272Z" transform="translate(-81.299 -5.069)"/>
      <path id="Path_7974" data-name="Path 7974" d="M256.309,17.685h1.555l-2.05,5.633c-.586,1.623-1.533,2.332-2.975,2.255V24.22a1.376,1.376,0,0,0,1.473-1.082L252,17.685h1.589l1.466,3.786Z" transform="translate(-83.322 -5.848)"/>
      <path id="Path_7975" data-name="Path 7975" d="M216.446,29.478a2.645,2.645,0,0,1,1.913.766,2.666,2.666,0,0,1,0,3.763,2.645,2.645,0,0,1-1.913.768h-1.389v2.592H213.5V29.478Zm0,3.842a1.142,1.142,0,0,0,1.147-1.138c0-.019,0-.038,0-.057a1.138,1.138,0,0,0-1.08-1.193h-1.455V33.32Z" transform="translate(-70.592 -9.747)"/>
      <path id="Path_7976" data-name="Path 7976" d="M226.545,32.765H228V38.4h-1.453v-.665a2.209,2.209,0,0,1-1.833.823,2.554,2.554,0,0,1-1.941-.857,3.179,3.179,0,0,1,0-4.224,2.57,2.57,0,0,1,1.941-.87,2.209,2.209,0,0,1,1.833.824Zm-1.566,4.406a1.511,1.511,0,0,0,1.114-.44,1.553,1.553,0,0,0,.452-1.149,1.51,1.51,0,0,0-.452-1.138,1.605,1.605,0,0,0-2.23,0,1.546,1.546,0,0,0-.44,1.138,1.588,1.588,0,0,0,.44,1.15,1.512,1.512,0,0,0,1.117.44" transform="translate(-73.391 -10.78)"/>
      <path id="Path_7977" data-name="Path 7977" d="M233.8,33.757a1.726,1.726,0,0,1,1.713-1.082V34.3a1.682,1.682,0,0,0-1.194.268,1.291,1.291,0,0,0-.519,1.162v2.694h-1.453V32.788H233.8Z" transform="translate(-76.822 -10.803)"/>
      <path id="Path_7978" data-name="Path 7978" d="M241.272,33.464H240v2.343c0,.608.438.62,1.272.576V37.7c-1.995.226-2.726-.349-2.726-1.894V33.464h-.981v-1.4h.981V30.928L240,30.49v1.576h1.272Z" transform="translate(-78.548 -10.081)"/>
      <path id="Path_7979" data-name="Path 7979" d="M248.851,33.226a2.342,2.342,0,0,1,.608,1.713V38.4h-1.453v-3.28a1.044,1.044,0,0,0-.92-1.155,1.059,1.059,0,0,0-.2,0c-.756,0-1.24.461-1.24,1.4V38.4H244.2V32.765h1.453V33.4a1.868,1.868,0,0,1,1.679-.789,2,2,0,0,1,1.521.62" transform="translate(-80.741 -10.779)"/>
      <path id="Path_7980" data-name="Path 7980" d="M254.371,36.182a1.435,1.435,0,0,0,1.589,1.059,1.494,1.494,0,0,0,1.26-.563l1.174.673a2.8,2.8,0,0,1-2.457,1.2,3.025,3.025,0,0,1-2.242-.841,2.888,2.888,0,0,1-.846-2.131,2.918,2.918,0,0,1,.835-2.116,2.844,2.844,0,0,1,2.142-.855,2.658,2.658,0,0,1,2.038.855,2.964,2.964,0,0,1,.812,2.116,3.8,3.8,0,0,1-.058.6Zm2.849-1.127a1.36,1.36,0,0,0-1.4-1.137,1.406,1.406,0,0,0-1.473,1.138Z" transform="translate(-83.602 -10.783)"/>
      <path id="Path_7981" data-name="Path 7981" d="M263.917,33.757a1.726,1.726,0,0,1,1.713-1.082V34.3a1.682,1.682,0,0,0-1.194.268,1.29,1.29,0,0,0-.519,1.162v2.694h-1.454V32.788h1.454Z" transform="translate(-86.78 -10.803)"/>
      <path id="Path_7982" data-name="Path 7982" d="M270.321,34.987c.823.169,1.893.563,1.882,1.768a1.557,1.557,0,0,1-.653,1.339,2.726,2.726,0,0,1-1.612.461,2.367,2.367,0,0,1-2.366-1.339l1.258-.709a1.048,1.048,0,0,0,1.1.732c.519,0,.777-.157.777-.485,0-.3-.45-.473-1.026-.618-.829-.212-1.878-.564-1.878-1.736a1.569,1.569,0,0,1,.608-1.307,2.57,2.57,0,0,1,3.673.71l-1.238.676a.931.931,0,0,0-.9-.574c-.373,0-.655.18-.655.461,0,.3.452.475,1.026.62" transform="translate(-88.47 -10.782)"/>
      <path id="Path_7983" data-name="Path 7983" d="M9.595,2.151H0v28.01l5.645-1.692V20.21H9.594a8.876,8.876,0,0,0,6.546-2.635,8.689,8.689,0,0,0,2.672-6.394,8.7,8.7,0,0,0-2.671-6.4A8.882,8.882,0,0,0,9.595,2.151m0,12.415H5.645V7.795H9.595a3.219,3.219,0,0,1,3.2,3.234c0,.051,0,.1,0,.153a3.219,3.219,0,0,1-3.047,3.381c-.051,0-.1,0-.152,0" transform="translate(0 -0.711)"/>
      <path id="Path_7984" data-name="Path 7984" d="M55.751,14.325a6.969,6.969,0,0,0-5.605-2.3,8.346,8.346,0,0,0-6.359,2.9,9.96,9.96,0,0,0-2.634,7.036,10.056,10.056,0,0,0,2.635,7.073,8.316,8.316,0,0,0,6.359,2.858A6.973,6.973,0,0,0,55.752,29.6v1.767H61.4v-20.5l-5.645,1.693ZM54.509,25.31a4.835,4.835,0,0,1-6.471,0A4.542,4.542,0,0,1,46.8,21.964a4.547,4.547,0,0,1,1.242-3.347,4.831,4.831,0,0,1,6.471,0,4.547,4.547,0,0,1,1.242,3.347,4.542,4.542,0,0,1-1.242,3.347" transform="translate(-13.605 -3.592)"/>
      <path id="Path_7985" data-name="Path 7985" d="M123.908,12.606a9.894,9.894,0,0,0-9.969,9.932,9.972,9.972,0,1,0,19.943,0,9.9,9.9,0,0,0-9.973-9.932m3.086,13.131a4.455,4.455,0,0,1-6.171,0,4.314,4.314,0,0,1-1.24-3.2,4.313,4.313,0,0,1,1.24-3.2,4.454,4.454,0,0,1,6.171,0,4.307,4.307,0,0,1,1.24,3.2,4.307,4.307,0,0,1-1.24,3.2" transform="translate(-37.672 -4.168)"/>
      <path id="Path_7986" data-name="Path 7986" d="M30.414,3.846V28.49h5.645V2.152Z" transform="translate(-10.056 -0.712)"/>
      <path id="Path_7987" data-name="Path 7987" d="M189,15.5a6.724,6.724,0,0,0-5.192-2.142,6.2,6.2,0,0,0-5.455,2.484,5.522,5.522,0,0,0-4.93-2.487c-2.331,0-4.025.752-5.041,2.258V13.377h-5.643V32.186h5.643v-10.1c0-2.22,1.091-3.536,2.935-3.536,1.767,0,2.708,1.165,2.708,3.084V32.188h5.645V22.082c0-2.22,1.091-3.536,2.934-3.536,1.768,0,2.71,1.165,2.71,3.084V32.188h5.643V21.144A7.865,7.865,0,0,0,189,15.5" transform="translate(-53.806 -4.412)"/>
      <path id="Path_7988" data-name="Path 7988" d="M151.23,15.627V13.393h-5.643V32.2h5.643V22.095c0-2.22,1.091-3.536,2.935-3.536a2.8,2.8,0,0,1,1.527.4V13.393a5.411,5.411,0,0,0-4.462,2.234" transform="translate(-48.137 -4.428)"/>
      <path id="Path_7989" data-name="Path 7989" d="M95.442,8.965V8.089c0-1.957,1.837-3.137,4.7-2.5V.17C93.635-.829,89.8,2.67,89.8,8.089v.876h-7.15V4.14L77,5.833V8.965H73.59v5.418H77v5.306c0,5.418,3.839,8.917,10.349,7.918V22.189c-2.867.635-4.7-.545-4.7-2.5V14.382H89.8V29.452l5.643-1.673v-13.4h4.7V8.965Z" transform="translate(-24.332 0)"/>
    </g>
  </g>
</svg>
