<svg id="Group_109" data-name="Group 109" xmlns="http://www.w3.org/2000/svg" xmlns:xlink="http://www.w3.org/1999/xlink" width="189.404" height="25.91" viewBox="0 0 189.404 25.91">
  <defs>
    <clipPath id="clip-path">
      <rect id="Rectangle_74" data-name="Rectangle 74" width="189.404" height="25.91" fill="none"/>
    </clipPath>
  </defs>
  <g id="Group_109-2" data-name="Group 109" transform="translate(0 0)" clip-path="url(#clip-path)">
    <path id="Path_112" data-name="Path 112" d="M173.833,18.186h-1.2v4.66h1.2V20.33c0-.773.4-1.155,1.025-1.155a.863.863,0,0,1,.923.96v2.713h1.2V19.985a1.937,1.937,0,0,0-.5-1.417,1.651,1.651,0,0,0-1.259-.513,1.542,1.542,0,0,0-1.389.652Zm-6.564,0h-1.2v4.66h1.2V20.619a1.069,1.069,0,0,1,.428-.96,1.4,1.4,0,0,1,.988-.224V18.093a1.429,1.429,0,0,0-1.417.895Zm-5.742,2.33a1.278,1.278,0,0,1,.364-.941,1.328,1.328,0,0,1,1.846,0,1.249,1.249,0,0,1,.373.941,1.285,1.285,0,0,1-.373.951,1.353,1.353,0,0,1-1.846,0,1.316,1.316,0,0,1-.364-.951m-.541-1.743a2.639,2.639,0,0,0,0,3.5,2.116,2.116,0,0,0,1.6.709,1.826,1.826,0,0,0,1.519-.681v.55h1.2v-4.66h-1.2v.55a1.826,1.826,0,0,0-1.519-.681,2.126,2.126,0,0,0-1.6.718m-4.064-1.249h1.147a.989.989,0,0,1,0,1.976h-1.147Zm1.147-1.2h-2.433v6.525h1.286V20.7h1.147a2.187,2.187,0,0,0,1.584-.634,2.205,2.205,0,0,0,0-3.114,2.187,2.187,0,0,0-1.584-.634m-144.982-3.5V.209L25.7,12.824Zm0,.21L25.962,25.91V0H0L12.824,12.824H0V25.91H13.086ZM48,8.661a2.662,2.662,0,0,1-2.646,2.8H42.088V5.86h3.268A2.662,2.662,0,0,1,48,8.661m2.77,5.29a7.192,7.192,0,0,0,2.21-5.29,7.193,7.193,0,0,0-2.21-5.291,7.345,7.345,0,0,0-5.416-2.178H37.419V24.362l4.668-1.4V16.13h3.268a7.345,7.345,0,0,0,5.416-2.179m3.488,9.026h4.668V1.192l-4.668,1.4ZM72.282,15.2a3.76,3.76,0,0,1-1.027,2.77,4,4,0,0,1-5.354,0,3.76,3.76,0,0,1-1.027-2.77,3.76,3.76,0,0,1,1.027-2.77,4,4,0,0,1,5.354,0,3.76,3.76,0,0,1,1.027,2.77m0,7.781h4.669V6.015l-4.669,1.4V8.879a5.767,5.767,0,0,0-4.637-1.9,6.906,6.906,0,0,0-5.26,2.4,8.241,8.241,0,0,0-2.179,5.82,8.318,8.318,0,0,0,2.179,5.851,6.874,6.874,0,0,0,5.26,2.365,5.766,5.766,0,0,0,4.637-1.9ZM96.242,11.9h3.892V7.416H96.242V6.691c0-1.618,1.52-2.594,3.892-2.069V.141c-5.385-.827-8.56,2.069-8.56,6.55v.725H85.658V3.424l-4.669,1.4V7.416H78.167V11.9H80.99v4.388c0,4.482,3.175,7.377,8.56,6.551V18.355c-2.372.525-3.892-.451-3.892-2.069V11.9h5.914V24.362l4.669-1.385Zm16.092,3.3a3.564,3.564,0,0,1-1.027,2.645,3.684,3.684,0,0,1-5.1,0,3.565,3.565,0,0,1-1.027-2.645,3.565,3.565,0,0,1,1.027-2.645,3.684,3.684,0,0,1,5.1,0,3.563,3.563,0,0,1,1.027,2.645m2.272,5.851A7.982,7.982,0,0,0,117,15.2a8.248,8.248,0,1,0-16.495,0,8.3,8.3,0,0,0,14.1,5.851m10.521-9.357a2.308,2.308,0,0,1,1.263.333V7.416a4.476,4.476,0,0,0-3.69,1.847V7.416H118.03V22.977H122.7V14.616c0-1.836.9-2.926,2.428-2.926M146.2,22.977h4.668V13.838a6.507,6.507,0,0,0-1.618-4.668A5.563,5.563,0,0,0,144.953,7.4,5.128,5.128,0,0,0,140.44,9.45,4.567,4.567,0,0,0,136.363,7.4a4.673,4.673,0,0,0-4.17,1.868V7.416h-4.669V22.977h4.669V14.616c0-1.836.9-2.926,2.428-2.926,1.462,0,2.24.965,2.24,2.552v8.734h4.669V14.616c0-1.836.9-2.926,2.427-2.926,1.463,0,2.241.965,2.241,2.552ZM159.13,10.09a.935.935,0,0,1-.885.969h-1.324V9.13h1.324a.927.927,0,0,1,.885.96m1.473,4.362-1.445-2.461a2.12,2.12,0,0,0,1.259-1.9,2.164,2.164,0,0,0-2.172-2.163h-2.61v6.525h1.286V12.187h.979l1.314,2.265Zm3.654-2.768h-2.377a1.162,1.162,0,0,1,1.221-.941,1.127,1.127,0,0,1,1.156.941m1.155.932a3.106,3.106,0,0,0,.047-.494,2.452,2.452,0,0,0-.671-1.753,2.2,2.2,0,0,0-1.687-.708,2.352,2.352,0,0,0-1.771.708,2.412,2.412,0,0,0-.69,1.753,2.388,2.388,0,0,0,.7,1.761,2.5,2.5,0,0,0,1.855.7,2.317,2.317,0,0,0,2.032-1l-.969-.559a1.238,1.238,0,0,1-1.044.466,1.187,1.187,0,0,1-1.314-.876Zm4.272-.494a1.286,1.286,0,0,1-.373.951,1.353,1.353,0,0,1-1.846,0,1.316,1.316,0,0,1-.364-.951,1.28,1.28,0,0,1,.364-.942,1.329,1.329,0,0,1,1.846,0,1.252,1.252,0,0,1,.373.942m0,2.33h1.2V9.792h-1.2v.55a1.825,1.825,0,0,0-1.519-.68,2.127,2.127,0,0,0-1.6.718,2.639,2.639,0,0,0,0,3.5,2.117,2.117,0,0,0,1.6.709,1.826,1.826,0,0,0,1.519-.681Zm2.339,3.733h-1.053v-1.3l-1.2.364v.941h-.811v1.156h.811v1.939c0,1.277.606,1.752,2.255,1.566V21.756c-.69.037-1.053.028-1.053-.475V19.342h1.053Zm-.2-3.733h1.2v-6.8h-1.2Zm4.807,0V13.362c-.69.037-1.053.028-1.053-.476V10.948h1.053V9.792h-1.053v-1.3l-1.2.364v.941h-.811v1.156h.811v1.939c0,1.277.606,1.753,2.255,1.566m3.472,0,1.7-4.661h-1.286l-1.034,3.132-1.212-3.132h-1.314l1.911,4.512a1.14,1.14,0,0,1-1.221.895v1.118a2.333,2.333,0,0,0,2.461-1.864m.935,5.626h-2.377a1.162,1.162,0,0,1,1.221-.942,1.126,1.126,0,0,1,1.156.942m1.156.932a3.15,3.15,0,0,0,.047-.494,2.45,2.45,0,0,0-.671-1.752,2.2,2.2,0,0,0-1.687-.709,2.353,2.353,0,0,0-1.771.709,2.57,2.57,0,0,0,.01,3.514,2.5,2.5,0,0,0,1.855.7,2.315,2.315,0,0,0,2.032-1l-.969-.559a1.237,1.237,0,0,1-1.044.466,1.188,1.188,0,0,1-1.314-.876Zm3.169-1.576V18.093a1.429,1.429,0,0,0-1.416.895v-.8h-1.2v4.66h1.2V20.619a1.069,1.069,0,0,1,.428-.96,1.4,1.4,0,0,1,.988-.224m2.921.168,1.025-.559a2.126,2.126,0,0,0-3.038-.587,1.3,1.3,0,0,0-.5,1.081c0,.969.867,1.259,1.557,1.436.475.121.848.261.848.513,0,.27-.214.4-.643.4a.868.868,0,0,1-.914-.606l-1.044.587a1.959,1.959,0,0,0,1.957,1.109,2.254,2.254,0,0,0,1.333-.382,1.286,1.286,0,0,0,.541-1.109c.009-1-.877-1.323-1.557-1.464-.476-.121-.848-.261-.848-.513,0-.233.233-.382.541-.382a.769.769,0,0,1,.746.475" transform="translate(0 0)" fill="#fff"/>
  </g>
</svg>
